<?xml version="1.0" encoding="UTF-8" standalone="no"?>
<svg
   width="1280"
   height="720"
   viewBox="0 0 338.66657 190.50038"
   version="1.1"
   id="svg195"
   sodipodi:docname="partial-derivatives.svg"
   inkscape:version="1.2.2 (b0a8486, 2022-12-01)"
   xmlns:inkscape="http://www.inkscape.org/namespaces/inkscape"
   xmlns:sodipodi="http://sodipodi.sourceforge.net/DTD/sodipodi-0.dtd"
   xmlns="http://www.w3.org/2000/svg"
   xmlns:svg="http://www.w3.org/2000/svg">
  <sodipodi:namedview
     id="namedview197"
     pagecolor="#ffffff"
     bordercolor="#000000"
     borderopacity="0.25"
     inkscape:showpageshadow="2"
     inkscape:pageopacity="0.0"
     inkscape:pagecheckerboard="0"
     inkscape:deskcolor="#d1d1d1"
     showgrid="false"
     inkscape:zoom="0.28232651"
     inkscape:cx="706.62864"
     inkscape:cy="464.00176"
     inkscape:window-width="1280"
     inkscape:window-height="456"
     inkscape:window-x="0"
     inkscape:window-y="25"
     inkscape:window-maximized="0"
     inkscape:current-layer="svg195" />
  <defs
     id="defs135">
    <marker
       id="a"
       markerHeight="5.9299998"
       markerWidth="6.1350002"
       orient="auto-start-reverse"
       preserveAspectRatio="xMidYMid"
       refX="0"
       refY="0"
       style="overflow:visible"
       viewBox="0 0 6.135 5.93">
      <path
         d="m -0.211,-4.106 6.421,3.212 a 1,1 90 0 1 0,1.788 L -0.21,4.106 A 1.236,1.236 31.717 0 1 -2,3 v -6 a 1.236,1.236 148.283 0 1 1.789,-1.106 z"
         style="fill:context-stroke;fill-rule:evenodd;stroke:none"
         transform="scale(0.7)"
         id="path132" />
    </marker>
  </defs>
  <path
     d="M 67.295826,132.23945 118.86949,80.665786 h 147.99596 l -53.44228,53.442284 z"
     style="fill:#ffffff;stroke:#000000;stroke-width:0.372878"
     id="path137" />
  <path
     d="m 67.295826,132.23945 c 0.997611,-1.46857 2.319321,-2.76496 2.996211,-4.4057 0.362921,-0.8862 -0.172176,-1.92939 0,-2.86961 0.151921,-0.844 0.719091,-1.56647 0.955412,-2.39021 0.405122,-1.41287 0.462514,-2.92026 0.957099,-4.30442 0.312281,-0.87439 1.044877,-1.54622 1.434806,-2.39022 0.568858,-1.23562 0.869323,-2.58434 1.433118,-3.82502 1.79435,-3.94656 0.08946,0.64988 1.912511,-2.39022 0.258264,-0.43213 0.199185,-1.0128 0.477705,-1.43481 0.374738,-0.5621 1.029684,-0.89295 1.434806,-1.43311 0.810243,-1.08033 1.579974,-2.26531 2.390217,-3.34732 1.471942,-1.96315 3.208901,-4.847955 5.25814,-6.21524 0.913212,-0.607683 3.990448,-2.101569 4.782123,-2.390218 1.856807,-0.675202 13.595206,-1.682942 15.776106,-0.955411 0.96554,0.320721 2.4628,0.602618 3.34732,0.955411 0.20931,0.08441 0.26502,0.40681 0.4777,0.477707 0.45408,0.15192 1.00774,-0.21269 1.43481,0 0.55704,0.27852 0.87776,0.678578 1.43481,0.957099 0.96216,0.48277 5.36617,0.849067 6.21524,0 0.1114,-0.113096 -0.1131,-0.366298 0,-0.477706 0.2245,-0.226193 0.7309,0.224505 0.95541,0 0.11309,-0.113097 -0.0709,-0.337601 0,-0.479393 0.8018,-1.603607 3.01647,-2.68393 3.82502,-4.30273 0.45576,-0.913211 0.76298,-1.973279 1.4348,-2.867922 2.4915,-3.325373 4.19808,-7.190908 6.69296,-10.517969 2.43073,-3.240972 5.20917,-6.30808 7.64835,-9.562556 1.47363,-1.963152 2.79196,-3.765943 4.78212,-5.25814 2.10663,-1.581663 4.78888,-2.076248 7.17066,-2.869611 0.67519,-0.224505 1.2373,-0.730907 1.91251,-0.955412 1.0685,-0.35617 2.25349,-0.204249 3.34731,-0.477706 0.69208,-0.173864 1.22043,-0.783235 1.91251,-0.9571 1.09214,-0.273457 2.22817,-0.337601 3.34563,-0.477706 1.81967,-0.22788 6.20849,-0.236321 7.65005,-0.955411 0.58743,-0.293714 1.99184,-3.983696 2.39021,-4.782123 1.54791,-3.095804 8.6983,-12.778208 11.95109,-13.863596 2.0273,-0.675203 5.35098,-0.938532 7.65174,-0.479395 7.41202,1.483758 10.8927,9.459588 15.7761,14.342991 0.61443,0.616123 1.19342,1.433119 1.91251,1.912512 1.26094,0.840627 2.13196,1.958087 3.34732,2.869611 0.72415,0.54185 2.09313,1.654247 2.86961,1.910823 0.30046,0.101283 0.65157,-0.101282 0.95541,0 0.99931,0.334226 1.86694,2.05768 2.86792,2.391905 0.30216,0.101282 0.67015,-0.14348 0.95542,0 0.32072,0.158673 0.16036,0.796739 0.47939,0.955412 1.26263,0.631315 2.62316,0.833876 3.82333,1.434806 0.88621,0.442257 2.14377,1.54959 2.86962,1.912511 0.14179,0.0709 0.31903,0 0.47771,0 0.31903,0.158673 0.65831,0.280209 0.9554,0.477706 0.41357,0.275145 1.63231,1.154596 1.91252,1.434806 0.98917,0.989171 -1.51077,-0.03882 0.47939,0.95541 0.77648,0.388242 1.62049,1.049941 2.39021,1.434806 0.76467,0.38149 1.14786,1.529334 1.91251,1.912512 0.28528,0.141792 0.73092,-0.226193 0.95542,0 0.1131,0.111409 -0.11309,0.364609 0,0.477705 0.16036,0.158673 1.27445,0.319034 1.4348,0.477707 0.19075,0.192433 0.25826,0.607682 0.95541,0.957099 0.60431,0.300465 2.41048,-0.459137 2.86962,0 0.11309,0.111408 -0.1131,0.364609 0,0.477706 0.26163,0.263329 1.98846,0.276833 2.39022,0.477706 1.11914,0.560418 2.54214,1.00774 3.82501,1.434805 1.49052,0.496274 2.04418,1.738647 3.34564,2.390217 l 1.91251,0.955412 c 0.28696,0.143481 0.7309,-0.224504 0.9571,0 0.1114,0.113096 -0.1131,0.366298 0,0.479394 0.42369,0.42369 5.41512,0.317345 5.73584,0.477705 0.20256,0.101283 0.27684,0.376426 0.4794,0.477707 0.28527,0.14348 0.7309,-0.224505 0.95541,0 0.11309,0.113096 -0.1131,0.366297 0,0.477705 0.11309,0.113097 0.3663,-0.113096 0.47771,0 0.11309,0.113097 0,0.320722 0,0.479394 l 3.90266,-0.313969"
     style="fill:#ffffff;stroke:#000000;stroke-width:0.372878"
     id="path139" />
  <path
     d="m 271.52098,98.838864 h 34.62945"
     style="fill:#ffffff;stroke:#000000;stroke-width:1.57035;stroke-dasharray:none;marker-end:url(#a)"
     id="path141" />
  <text
     xml:space="preserve"
     x="279.9458"
     y="88.712517"
     style="font-size:16.9211px;font-family:'Open Sans';-inkscape-font-specification:'Open Sans';fill:#000000;stroke:none;stroke-width:5.32949;stroke-dasharray:none"
     id="text145"><tspan
       x="279.9458"
       y="88.712517"
       style="fill:#000000;stroke:none;stroke-width:5.32949"
       id="tspan143">E</tspan></text>
  <path
     d="M 67.140529,98.838864 H 32.51614"
     style="fill:#ffffff;stroke:#000000;stroke-width:1.57035;stroke-dasharray:none;marker-end:url(#a)"
     id="path147" />
  <text
     xml:space="preserve"
     x="51.764477"
     y="88.712517"
     style="font-size:16.9211px;font-family:'Open Sans';-inkscape-font-specification:'Open Sans';fill:#000000;stroke:none;stroke-width:5.32949;stroke-dasharray:none"
     id="text151"><tspan
       x="51.764477"
       y="88.712517"
       style="fill:#000000;stroke:none;stroke-width:5.32949"
       id="tspan149">W</tspan></text>
  <path
     d="M 224.81721,41.230579 259.44498,13.299136"
     style="fill:#ffffff;stroke:#000000;stroke-width:1.57035;stroke-dasharray:none;marker-end:url(#a)"
     id="path153" />
  <text
     xml:space="preserve"
     x="222.67175"
     y="20.300991"
     style="font-size:16.9211px;font-family:'Open Sans';-inkscape-font-specification:'Open Sans';fill:#000000;stroke:none;stroke-width:5.32949;stroke-dasharray:none"
     id="text157"><tspan
       x="222.67175"
       y="20.300991"
       style="fill:#000000;stroke:none;stroke-width:5.32949"
       id="tspan155">N</tspan></text>
  <path
     d="M 124.00103,149.26974 89.373263,177.20287"
     style="fill:#ffffff;stroke:#000000;stroke-width:1.57035;stroke-dasharray:none;marker-end:url(#a)"
     id="path159" />
  <text
     xml:space="preserve"
     x="72.24675"
     y="160.73804"
     style="font-size:16.9211px;font-family:'Open Sans';-inkscape-font-specification:'Open Sans';fill:#000000;stroke:none;stroke-width:5.32949;stroke-dasharray:none"
     id="text163"><tspan
       x="72.24675"
       y="160.73804"
       style="fill:#000000;stroke:none;stroke-width:5.32949"
       id="tspan161">S</tspan></text>
  <text
     xml:space="preserve"
     x="217.78499"
     y="56.058029"
     style="font-size:10.5732px;font-family:'Open Sans';-inkscape-font-specification:'Open Sans';fill:#000080;stroke:none;stroke-width:3.33015;stroke-dasharray:none"
     id="text167"><tspan
       x="217.78499"
       y="56.058029"
       style="fill:#000080;stroke:none;stroke-width:3.33015"
       id="tspan165">b(x, y)</tspan></text>
  <path
     d="M 162.20567,131.72461 217.54528,78.758338"
     style="fill:#000080;stroke:#000080;stroke-width:1.57035;stroke-dasharray:1.57035, 1.57035;stroke-dashoffset:0"
     id="path169" />
  <path
     d="m 162.33565,95.137065 c 1.41793,-2.125199 2.69407,-4.436081 4.23015,-6.485321 0.75454,-1.006051 1.78928,-1.81967 2.53876,-2.81897 0.12491,-0.168801 0.13335,-0.416937 0.28189,-0.565483 0.43889,-0.438881 1.18837,-0.751162 1.69139,-1.127588 2.02898,-1.520894 -0.59587,0.312281 0.84569,-1.127588 0.14855,-0.148544 0.41525,-0.13504 0.5638,-0.283585 2.11675,-2.11676 3.33887,-4.731482 5.07583,-7.049115 0.37137,-0.496274 0.47264,-1.195109 0.84569,-1.691383 1.4635,-1.949647 4.5171,-4.108607 6.48701,-5.639629 1.29302,-1.006052 2.39697,-2.481369 3.94656,-3.102556 1.01955,-0.40681 2.3497,-0.89802 3.38445,-1.127588 0.55029,-0.121537 1.13941,0.111408 1.69138,0 0.70222,-0.140105 1.5766,-0.337602 2.25687,-0.563795 0.422,-0.141792 0.98579,0.140105 1.40949,0 0.1266,-0.0422 0.15191,-0.256576 0.28189,-0.281897 0.36799,-0.07427 0.75961,0.07428 1.1276,0 0.12996,-0.02701 0.16373,-0.222816 0.28189,-0.281897 0.56548,-0.281896 1.64749,0.02195 2.25687,-0.281896 0.64649,-0.324098 1.26094,-0.386555 1.97328,-0.563795 0.56379,-0.141792 0.94527,-0.614435 1.40948,-0.845691 0.37811,-0.190745 1.055,-0.104651 1.41117,-0.283586 1.04657,-0.523281 2.19948,-0.732594 3.38276,-1.127588 0.82544,-0.275144 2.2248,0 3.10257,0 0.17217,0 1.01786,0.109721 1.12758,0 0.0946,-0.09284 0.18737,-0.374737 0.28189,-0.281897 0.43383,0.433818 -0.53846,0.590803 -0.28189,0.845692 0.14011,0.141792 0.422,0.141792 0.56379,0.281897 0.58405,0.58405 -0.89126,-0.02195 0.28191,0.565482 0.0911,0.04557 1.38754,0.04557 1.40948,0 0.52665,-1.055004 0.89971,-2.179216 1.3504,-3.269669"
     style="fill:none;stroke:#000080;stroke-width:1.57035;stroke-dasharray:none;stroke-dashoffset:0"
     id="path171" />
  <path
     d="M 162.20567,131.72461 V 95.309243 M 217.54528,78.758338 V 58.029619"
     style="fill:none;stroke:#000080;stroke-width:1.57035;stroke-dasharray:1.57035, 1.57035;stroke-dashoffset:0"
     id="path173" />
  <path
     d="m 126.22919,88.150407 c 2.19779,-2.334513 4.94249,0.03038 7.31414,-0.562107 0.68533,-0.172176 1.24912,-0.661697 1.89394,-0.946971 2.84767,-1.266005 5.68859,-2.498249 8.52444,-3.789574 3.47729,-1.579975 7.53694,-2.582651 10.89101,-4.260529 a 41.32915,41.32915 0 0 1 5.68183,-2.368273 c 2.40879,-0.801803 5.03026,-2.407097 7.10313,-3.787887 1.09552,-0.730906 2.59447,-0.823746 3.78789,-1.421301 0.19919,-0.09959 0.31566,-0.315657 0.47264,-0.472642 0.31734,-0.158673 0.62119,-0.342665 0.94866,-0.472642 4.76524,-1.907447 -1.00605,0.367986 2.36659,-0.47433 1.12083,-0.280208 2.21466,-1.053316 3.31524,-1.421301 0.98411,-0.327473 13.43991,-0.308906 14.67891,0 0.34266,0.0844 0.6043,0.388242 0.94696,0.472642 0.89128,0.224505 1.94965,-0.221129 2.84092,0 2.33789,0.585738 9.33974,2.238297 10.89102,3.789574 0.98411,0.984108 2.61641,1.308205 3.78957,1.893944 0.2819,0.141793 0.66339,-0.141792 0.94529,0 0.73428,0.366297 1.61711,1.169788 2.36827,1.421301 0.30047,0.09959 0.64144,-0.07765 0.94698,0 0.87438,0.217753 1.20692,0.602618 1.89394,0.945284 0.28358,0.141792 0.66507,-0.140105 0.94697,0 0.78661,0.394994 1.43143,0.636378 2.36827,0.948659 0.5486,0.182305 1.34365,-0.138416 1.89394,0 1.36391,0.340978 2.95402,0.509779 4.26222,0.945284 0.48952,0.165425 0.95035,0.714027 1.41962,0.94866 0.54015,0.270081 1.21874,-0.101283 2.36827,0.472642 0.49627,0.248136 1.99015,-0.378114 2.36827,0 0.11141,0.111408 -0.11309,0.362921 0,0.472641 0.5064,0.506403 0.94528,-0.671827 0.94528,0.47433 v 0.946972 -1.238997"
     style="fill:none;stroke:#ff6600;stroke-width:1.57035;stroke-dasharray:none;stroke-dashoffset:0"
     id="path175" />
  <path
     d="m 194.62722,96.38619 6.44481,-1.72683 -1.72853,6.45156 z"
     style="fill:#000080;stroke:none;stroke-width:0.493144;stroke-dasharray:0.493144, 0.493144;stroke-dashoffset:0"
     id="path177" />
  <text
     xml:space="preserve"
     x="194.14276"
     y="108.65968"
     style="font-size:10.5732px;font-family:'Open Sans';-inkscape-font-specification:'Open Sans';fill:#000080;stroke:none;stroke-width:3.33015;stroke-dasharray:none"
     id="text181"><tspan
       x="194.14276"
       y="108.65968"
       style="fill:#000080;stroke:none;stroke-width:3.33015"
       id="tspan179">y</tspan></text>
  <path
     d="M 234.40509,81.904783 V 113.12615 H 126.62756 V 87.780733"
     style="fill:none;stroke:#ff6600;stroke-width:1.57035;stroke-dasharray:1.57035, 1.57035;stroke-dashoffset:0"
     id="path183" />
  <path
     d="m 212.04576,109.78728 5.77973,3.33718 -5.7848,3.33888 z"
     style="fill:#ff6600;stroke:none;stroke-width:0.493144;stroke-dasharray:0.493144, 0.493144;stroke-dashoffset:0"
     id="path185" />
  <text
     xml:space="preserve"
     x="206.74371"
     y="122.12153"
     style="font-size:10.5732px;font-family:'Open Sans';-inkscape-font-specification:'Open Sans';fill:#ff6600;stroke:none;stroke-width:3.33015;stroke-dasharray:none"
     id="text189"><tspan
       x="206.74371"
       y="122.12153"
       style="fill:#ff6600;stroke:none;stroke-width:3.33015"
       id="tspan187">x</tspan></text>
  <text
     xml:space="preserve"
     x="239.39145"
     y="88.027168"
     style="font-size:10.5732px;font-family:'Open Sans';-inkscape-font-specification:'Open Sans';fill:#ff6600;stroke:none;stroke-width:3.33015;stroke-dasharray:none"
     id="text193"><tspan
       x="239.39145"
       y="88.027168"
       style="fill:#ff6600;stroke:none;stroke-width:3.33015"
       id="tspan191">a(x, y)</tspan></text>
</svg>
