<svg xmlns="http://www.w3.org/2000/svg" width="694.375" height="418.922" viewBox="0 0 183.72 110.84"><defs><marker id="a" markerHeight="5.93" markerWidth="6.135" orient="auto-start-reverse" preserveAspectRatio="xMidYMid" refX="0" refY="0" style="overflow:visible" viewBox="0 0 6.135 5.93"><path d="M-.211-4.106 6.21-.894a1 1 90 0 1 0 1.788L-.21 4.106A1.236 1.236 31.717 0 1-2 3v-6A1.236 1.236 148.283 0 1-.211-4.106z" style="fill:context-stroke;fill-rule:evenodd;stroke:none" transform="scale(.7)"/></marker></defs><path d="m41.044 160.073 30.553-30.553h87.675l-31.66 31.66Z" style="fill:#fff;stroke:#000;stroke-width:.220899" transform="translate(-9.632 -82.74)"/><path d="M41.044 160.073c.591-.87 1.374-1.638 1.775-2.61.215-.525-.102-1.143 0-1.7.09-.5.426-.928.566-1.416.24-.837.274-1.73.567-2.55.185-.518.619-.916.85-1.416.337-.732.515-1.531.849-2.266 1.063-2.338.053.385 1.133-1.416.153-.256.118-.6.283-.85.222-.333.61-.529.85-.849.48-.64.936-1.342 1.416-1.983.872-1.163 1.901-2.872 3.115-3.682.541-.36 2.364-1.245 2.833-1.416 1.1-.4 8.054-.997 9.346-.566.572.19 1.459.357 1.983.566.124.05.157.241.283.283.269.09.597-.126.85 0 .33.165.52.402.85.567.57.286 3.179.503 3.682 0 .066-.067-.067-.217 0-.283.133-.134.433.133.566 0 .067-.067-.042-.2 0-.284.475-.95 1.787-1.59 2.266-2.549.27-.541.452-1.169.85-1.699 1.476-1.97 2.487-4.26 3.965-6.231 1.44-1.92 3.086-3.737 4.531-5.665.873-1.163 1.654-2.231 2.833-3.115 1.248-.937 2.837-1.23 4.248-1.7.4-.133.733-.433 1.133-.566.633-.211 1.335-.121 1.983-.283.41-.103.723-.464 1.133-.567.647-.162 1.32-.2 1.982-.283 1.078-.135 3.678-.14 4.532-.566.348-.174 1.18-2.36 1.416-2.833.917-1.834 5.153-7.57 7.08-8.213 1.201-.4 3.17-.556 4.533-.284 4.391.879 6.453 5.604 9.346 8.497.364.365.707.849 1.133 1.133.747.498 1.263 1.16 1.983 1.7.429.321 1.24.98 1.7 1.132.178.06.386-.06.566 0 .592.198 1.106 1.219 1.699 1.417.179.06.397-.085.566 0 .19.094.095.472.284.566.748.374 1.554.494 2.265.85.525.262 1.27.918 1.7 1.133.084.042.189 0 .283 0 .189.094.39.166.566.283.245.163.967.684 1.133.85.586.586-.895-.023.284.566.46.23.96.622 1.416.85.453.226.68.906 1.133 1.133.169.084.433-.134.566 0 .067.066-.067.216 0 .283.095.094.755.189.85.283.113.114.153.36.566.567.358.178 1.428-.272 1.7 0 .067.066-.067.216 0 .283.155.156 1.178.164 1.416.283.663.332 1.506.597 2.266.85.883.294 1.211 1.03 1.982 1.416l1.133.566c.17.085.433-.133.567 0 .066.067-.067.217 0 .284.251.251 3.208.188 3.398.283.12.06.164.223.284.283.169.085.433-.133.566 0 .067.067-.067.217 0 .283.067.067.217-.067.283 0 .067.067 0 .19 0 .284l2.312-.186" style="fill:#fff;stroke:#000;stroke-width:.220899" transform="translate(-9.632 -82.74)"/><path d="M162.03 140.286h20.515" style="fill:#fff;stroke:#000;stroke-width:.930302;stroke-dasharray:none;marker-end:url(#a)" transform="translate(-9.632 -82.74)"/><text xml:space="preserve" x="167.021" y="134.287" style="font-size:10.0243px;font-family:&quot;Open Sans&quot;;-inkscape-font-specification:&quot;Open Sans&quot;;fill:#000;stroke:none;stroke-width:3.15727;stroke-dasharray:none" transform="translate(-9.632 -82.74)"><tspan x="167.021" y="134.287" style="fill:#000;stroke:none;stroke-width:3.15727">E</tspan></text><path d="M40.952 140.286H20.44" style="fill:#fff;stroke:#000;stroke-width:.930302;stroke-dasharray:none;marker-end:url(#a)" transform="translate(-9.632 -82.74)"/><text xml:space="preserve" x="31.843" y="134.287" style="font-size:10.0243px;font-family:&quot;Open Sans&quot;;-inkscape-font-specification:&quot;Open Sans&quot;;fill:#000;stroke:none;stroke-width:3.15727;stroke-dasharray:none" transform="translate(-9.632 -82.74)"><tspan x="31.843" y="134.287" style="fill:#000;stroke:none;stroke-width:3.15727">W</tspan></text><path d="m134.362 106.158 20.514-16.547" style="fill:#fff;stroke:#000;stroke-width:.930302;stroke-dasharray:none;marker-end:url(#a)" transform="translate(-9.632 -82.74)"/><text xml:space="preserve" x="133.091" y="93.759" style="font-size:10.0243px;font-family:&quot;Open Sans&quot;;-inkscape-font-specification:&quot;Open Sans&quot;;fill:#000;stroke:none;stroke-width:3.15727;stroke-dasharray:none" transform="translate(-9.632 -82.74)"><tspan x="133.091" y="93.759" style="fill:#000;stroke:none;stroke-width:3.15727">N</tspan></text><path d="M74.637 170.162 54.123 186.71" style="fill:#fff;stroke:#000;stroke-width:.930302;stroke-dasharray:none;marker-end:url(#a)" transform="translate(-9.632 -82.74)"/><text xml:space="preserve" x="43.977" y="176.956" style="font-size:10.0243px;font-family:&quot;Open Sans&quot;;-inkscape-font-specification:&quot;Open Sans&quot;;fill:#000;stroke:none;stroke-width:3.15727;stroke-dasharray:none" transform="translate(-9.632 -82.74)"><tspan x="43.977" y="176.956" style="fill:#000;stroke:none;stroke-width:3.15727">S</tspan></text><text xml:space="preserve" x="130.196" y="114.942" style="font-size:6.26371px;font-family:&quot;Open Sans&quot;;-inkscape-font-specification:&quot;Open Sans&quot;;fill:navy;stroke:none;stroke-width:1.97283;stroke-dasharray:none" transform="translate(-9.632 -82.74)"><tspan x="130.196" y="114.942" style="fill:navy;stroke:none;stroke-width:1.97283">b(y)</tspan></text><path d="m97.27 159.768 32.784-31.378" style="fill:navy;stroke:navy;stroke-width:.930302;stroke-dasharray:.930302,.930302;stroke-dashoffset:0" transform="translate(-9.632 -82.74)"/><path d="M97.347 138.093c.84-1.259 1.596-2.628 2.506-3.842.447-.596 1.06-1.078 1.504-1.67.074-.1.079-.247.167-.335.26-.26.704-.445 1.002-.668 1.202-.901-.353.185.501-.668.088-.088.246-.08.334-.168 1.254-1.254 1.978-2.803 3.007-4.176.22-.294.28-.708.501-1.002.867-1.155 2.676-2.434 3.843-3.341.766-.596 1.42-1.47 2.338-1.838.604-.241 1.392-.532 2.005-.668.326-.072.675.066 1.002 0 .416-.083.934-.2 1.337-.334.25-.084.584.083.835 0 .075-.025.09-.152.167-.167.218-.044.45.044.668 0 .077-.016.097-.132.167-.167.335-.167.976.013 1.337-.167.383-.192.747-.229 1.169-.334.334-.084.56-.364.835-.501.224-.113.625-.062.836-.168.62-.31 1.303-.434 2.004-.668.489-.163 1.318 0 1.838 0 .102 0 .603.065.668 0 .056-.055.111-.222.167-.167.257.257-.319.35-.167.501.083.084.25.084.334.167.346.346-.528-.013.167.335.054.027.822.027.835 0 .312-.625.533-1.291.8-1.937" style="fill:none;stroke:navy;stroke-width:.930302;stroke-dasharray:none;stroke-dashoffset:0" transform="translate(-9.632 -82.74)"/><path d="M97.27 159.768v-21.573M130.054 128.39v-12.28" style="fill:none;stroke:navy;stroke-width:.930302;stroke-dasharray:.930302,.930302;stroke-dashoffset:0" transform="translate(-9.632 -82.74)"/><path d="M75.957 133.954c1.302-1.383 2.928.018 4.333-.333.406-.102.74-.392 1.122-.561 1.687-.75 3.37-1.48 5.05-2.245 2.06-.936 4.465-1.53 6.452-2.524a24.484 24.484 0 0 1 3.366-1.403c1.427-.475 2.98-1.426 4.208-2.244.649-.433 1.537-.488 2.244-.842.118-.059.187-.187.28-.28.188-.094.368-.203.562-.28 2.823-1.13-.596.218 1.402-.281.664-.166 1.312-.624 1.964-.842.583-.194 7.962-.183 8.696 0 .203.05.358.23.561.28.528.133 1.155-.131 1.683 0 1.385.347 5.533 1.326 6.452 2.245.583.583 1.55.775 2.245 1.122.167.084.393-.084.56 0 .435.217.958.693 1.403.842.178.059.38-.046.561 0 .518.129.715.357 1.122.56.168.084.394-.083.561 0 .466.234.848.377 1.403.562.325.108.796-.082 1.122 0 .808.202 1.75.302 2.525.56.29.098.563.423.841.562.32.16.722-.06 1.403.28.294.147 1.179-.224 1.403 0 .066.066-.067.215 0 .28.3.3.56-.398.56.281v.561-.734" style="fill:none;stroke:#f60;stroke-width:.930302;stroke-dasharray:none;stroke-dashoffset:0" transform="translate(-9.632 -82.74)"/><path d="m116.477 138.833 3.818-1.023-1.024 3.822z" style="fill:navy;stroke:none;stroke-width:.292146;stroke-dasharray:.292146,.292146;stroke-dashoffset:0" transform="translate(-9.632 -82.74)"/><text xml:space="preserve" x="116.19" y="146.104" style="font-size:6.26371px;font-family:&quot;Open Sans&quot;;-inkscape-font-specification:&quot;Open Sans&quot;;fill:navy;stroke:none;stroke-width:1.97283;stroke-dasharray:none" transform="translate(-9.632 -82.74)"><tspan x="116.19" y="146.104" style="fill:navy;stroke:none;stroke-width:1.97283">y</tspan></text><path d="M140.042 130.254v18.496H76.193v-15.015" style="fill:none;stroke:#f60;stroke-width:.930302;stroke-dasharray:.930302,.930302;stroke-dashoffset:0" transform="translate(-9.632 -82.74)"/><path d="m126.796 146.772 3.424 1.977-3.427 1.978z" style="fill:#f60;stroke:none;stroke-width:.292146;stroke-dasharray:.292146,.292146;stroke-dashoffset:0" transform="translate(-9.632 -82.74)"/><text xml:space="preserve" x="123.655" y="154.079" style="font-size:6.26371px;font-family:&quot;Open Sans&quot;;-inkscape-font-specification:&quot;Open Sans&quot;;fill:#f60;stroke:none;stroke-width:1.97283;stroke-dasharray:none" transform="translate(-9.632 -82.74)"><tspan x="123.655" y="154.079" style="fill:#f60;stroke:none;stroke-width:1.97283">x</tspan></text><text xml:space="preserve" x="142.996" y="133.881" style="font-size:6.26371px;font-family:&quot;Open Sans&quot;;-inkscape-font-specification:&quot;Open Sans&quot;;fill:#f60;stroke:none;stroke-width:1.97283;stroke-dasharray:none" transform="translate(-9.632 -82.74)"><tspan x="142.996" y="133.881" style="fill:#f60;stroke:none;stroke-width:1.97283">a(x)</tspan></text></svg>