<?xml version="1.0" encoding="UTF-8" standalone="no"?>
<!-- Created with Inkscape (http://www.inkscape.org/) -->

<svg
   width="183.72012mm"
   height="110.83982mm"
   viewBox="0 0 183.72012 110.83982"
   version="1.1"
   id="svg5"
   inkscape:version="1.2.2 (b0a8486, 2022-12-01)"
   sodipodi:docname="partial-derivatives.svg"
   xmlns:inkscape="http://www.inkscape.org/namespaces/inkscape"
   xmlns:sodipodi="http://sodipodi.sourceforge.net/DTD/sodipodi-0.dtd"
   xmlns="http://www.w3.org/2000/svg"
   xmlns:svg="http://www.w3.org/2000/svg">
  <sodipodi:namedview
     id="namedview7"
     pagecolor="#ffffff"
     bordercolor="#000000"
     borderopacity="0.25"
     inkscape:showpageshadow="2"
     inkscape:pageopacity="0.0"
     inkscape:pagecheckerboard="0"
     inkscape:deskcolor="#d1d1d1"
     inkscape:document-units="mm"
     showgrid="false"
     inkscape:zoom="0.51656777"
     inkscape:cx="167.45141"
     inkscape:cy="134.54188"
     inkscape:window-width="1280"
     inkscape:window-height="629"
     inkscape:window-x="0"
     inkscape:window-y="25"
     inkscape:window-maximized="0"
     inkscape:current-layer="layer1" />
  <defs
     id="defs2">
    <marker
       style="overflow:visible"
       id="RoundedArrow"
       refX="0"
       refY="0"
       orient="auto-start-reverse"
       inkscape:stockid="RoundedArrow"
       markerWidth="6.1347523"
       markerHeight="5.9304948"
       viewBox="0 0 6.1347524 5.9304951"
       inkscape:isstock="true"
       inkscape:collect="always"
       preserveAspectRatio="xMidYMid">
      <path
         transform="scale(0.7)"
         d="m -0.21114562,-4.1055728 6.42229122,3.21114561 a 1,1 90 0 1 0,1.78885438 L -0.21114562,4.1055728 A 1.236068,1.236068 31.717474 0 1 -2,3 v -6 a 1.236068,1.236068 148.28253 0 1 1.78885438,-1.1055728 z"
         style="fill:context-stroke;fill-rule:evenodd;stroke:none"
         id="path1367" />
    </marker>
  </defs>
  <g
     inkscape:label="Layer 1"
     inkscape:groupmode="layer"
     id="layer1"
     transform="translate(-9.6315916,-82.740484)">
    <path
       style="fill:#ffffff;stroke:#000000;stroke-width:0.220899"
       d="M 41.043798,160.07289 71.597165,129.51953 H 159.27205 L 127.61168,161.1799 Z"
       id="path195" />
    <path
       style="fill:#ffffff;stroke:#000000;stroke-width:0.220899"
       d="m 41.043798,160.07289 c 0.59162,-0.87027 1.374173,-1.63776 1.774862,-2.61082 0.215687,-0.5238 -0.101334,-1.14206 0,-1.69938 0.09095,-0.50022 0.426787,-0.9273 0.566458,-1.41615 0.239122,-0.83693 0.273709,-1.72936 0.56646,-2.54907 0.185155,-0.51843 0.618998,-0.91632 0.84969,-1.41615 0.338031,-0.73239 0.515901,-1.5315 0.849691,-2.26584 1.062856,-2.33829 0.05255,0.38446 1.132921,-1.41615 0.153602,-0.256 0.117623,-0.60128 0.283229,-0.84969 0.222184,-0.33327 0.609362,-0.52925 0.849689,-0.84969 0.480448,-0.6406 0.935705,-1.34201 1.416152,-1.98261 0.872257,-1.16302 1.901428,-2.8726 3.115531,-3.682 0.540541,-0.36035 2.363091,-1.24552 2.8323,-1.41615 1.100348,-0.40012 8.054525,-0.99714 9.346591,-0.56645 0.571688,0.19055 1.458432,0.35678 1.98261,0.56645 0.123967,0.0496 0.156566,0.24101 0.283231,0.28324 0.268694,0.0896 0.596362,-0.12667 0.84969,0 0.329926,0.16496 0.519763,0.40149 0.84969,0.56645 0.571321,0.28566 3.178933,0.50306 3.681991,0 0.06676,-0.0668 -0.06676,-0.21647 0,-0.28323 0.133515,-0.13351 0.432945,0.13352 0.566458,0 0.06676,-0.0668 -0.04222,-0.19878 0,-0.28322 0.474887,-0.94978 1.786939,-1.59126 2.265841,-2.54907 0.270817,-0.54164 0.452053,-1.1692 0.84969,-1.69938 1.476907,-1.96922 2.487146,-4.2603 3.96522,-6.23106 1.440326,-1.92043 3.086206,-3.7373 4.531681,-5.66461 0.872368,-1.16316 1.653976,-2.23178 2.832302,-3.11553 1.248619,-0.93646 2.837644,-1.22911 4.248451,-1.69937 0.400548,-0.13352 0.732372,-0.43295 1.13292,-0.56647 0.63332,-0.21111 1.334962,-0.12131 1.982611,-0.28323 0.409606,-0.1024 0.723311,-0.46406 1.132919,-0.56646 0.647648,-0.16191 1.320184,-0.20043 1.982611,-0.28322 1.077756,-0.13473 3.677512,-0.13939 4.531682,-0.56647 0.34805,-0.17402 1.17962,-2.35925 1.41615,-2.8323 0.91695,-1.83388 5.15307,-7.57111 7.08076,-8.21367 1.20013,-0.40004 3.16914,-0.55574 4.53168,-0.28323 4.3918,0.87837 6.45375,5.60406 9.34659,8.4969 0.36431,0.36431 0.70641,0.84858 1.13292,1.13292 0.74724,0.49817 1.26323,1.15985 1.9826,1.69938 0.42899,0.32174 1.24122,0.9802 1.69939,1.13292 0.17913,0.0597 0.38733,-0.0597 0.56647,0 0.59285,0.19762 1.10651,1.21854 1.69937,1.41616 0.17913,0.0597 0.39757,-0.0845 0.56646,0 0.18882,0.0944 0.0944,0.47204 0.28323,0.56646 0.74837,0.37418 1.55475,0.49414 2.26584,0.84968 0.52412,0.26207 1.2696,0.91803 1.69938,1.13292 0.0845,0.0422 0.18882,0 0.28323,0 0.18882,0.0944 0.39081,0.16613 0.56646,0.28324 0.24463,0.16309 0.96697,0.68373 1.13292,0.84969 0.58601,0.586 -0.89551,-0.0229 0.28323,0.56646 0.45971,0.22986 0.96024,0.62173 1.41616,0.84968 0.45316,0.22658 0.67974,0.90634 1.13291,1.13292 0.16889,0.0845 0.43294,-0.13351 0.56646,0 0.0668,0.0668 -0.0668,0.21647 0,0.28323 0.0944,0.0944 0.75529,0.18883 0.84969,0.28323 0.11338,0.11337 0.15339,0.35993 0.56646,0.56646 0.35758,0.17879 1.42748,-0.2719 1.69938,0 0.0668,0.0668 -0.0668,0.21648 0,0.28323 0.1557,0.1557 1.17821,0.16426 1.41615,0.28324 0.66351,0.33175 1.50638,0.59653 2.26584,0.84969 0.88292,0.2943 1.21145,1.03057 1.98261,1.41615 0.3675,0.18374 0.7503,0.37514 1.13292,0.56646 0.16889,0.0845 0.43294,-0.13352 0.56646,0 0.0668,0.0667 -0.0668,0.21646 0,0.28322 0.25164,0.25165 3.20857,0.18814 3.39877,0.28323 0.11941,0.0597 0.16381,0.22353 0.28323,0.28323 0.16888,0.0845 0.43294,-0.13351 0.56646,0 0.0668,0.0668 -0.0668,0.21648 0,0.28323 0.0668,0.0668 0.21647,-0.0668 0.28323,0 0.0668,0.0668 0,0.18883 0,0.28323 0.77055,-0.062 1.54111,-0.124 2.31167,-0.18599"
       id="path429" />
    <path
       style="fill:#ffffff;stroke:#000000;stroke-width:0.930302;stroke-dasharray:none;marker-end:url(#RoundedArrow)"
       d="m 162.03085,140.28578 h 20.51368"
       id="path485" />
    <text
       xml:space="preserve"
       style="font-size:10.0243px;font-family:'Open Sans';-inkscape-font-specification:'Open Sans';fill:#000000;stroke:none;stroke-width:3.15727;stroke-dasharray:none"
       x="167.02107"
       y="134.28743"
       id="text1316"><tspan
         sodipodi:role="line"
         id="tspan1314"
         style="fill:#000000;stroke:none;stroke-width:3.15727"
         x="167.02107"
         y="134.28743">E</tspan></text>
    <path
       style="fill:#ffffff;stroke:#000000;stroke-width:0.930302;stroke-dasharray:none;marker-end:url(#RoundedArrow)"
       d="M 40.952456,140.28578 H 20.438779"
       id="path1422" />
    <text
       xml:space="preserve"
       style="font-size:10.0243px;font-family:'Open Sans';-inkscape-font-specification:'Open Sans';fill:#000000;stroke:none;stroke-width:3.15727;stroke-dasharray:none"
       x="31.843472"
       y="134.28743"
       id="text1426"><tspan
         sodipodi:role="line"
         id="tspan1424"
         style="fill:#000000;stroke:none;stroke-width:3.15727"
         x="31.843472"
         y="134.28743">W</tspan></text>
    <path
       style="fill:#ffffff;stroke:#000000;stroke-width:0.930302;stroke-dasharray:none;marker-end:url(#RoundedArrow)"
       d="M 134.36248,106.15838 154.87616,89.61099"
       id="path1436"
       sodipodi:nodetypes="cc" />
    <text
       xml:space="preserve"
       style="font-size:10.0243px;font-family:'Open Sans';-inkscape-font-specification:'Open Sans';fill:#000000;stroke:none;stroke-width:3.15727;stroke-dasharray:none"
       x="133.09149"
       y="93.759132"
       id="text1491"><tspan
         sodipodi:role="line"
         id="tspan1489"
         style="fill:#000000;stroke:none;stroke-width:3.15727"
         x="133.09149"
         y="93.759132">N</tspan></text>
    <path
       style="fill:#ffffff;stroke:#000000;stroke-width:0.930302;stroke-dasharray:none;marker-end:url(#RoundedArrow)"
       d="M 74.636931,170.16244 54.123254,186.70982"
       id="path1495"
       sodipodi:nodetypes="cc" />
    <text
       xml:space="preserve"
       style="font-size:10.0243px;font-family:'Open Sans';-inkscape-font-specification:'Open Sans';fill:#000000;stroke:none;stroke-width:3.15727;stroke-dasharray:none"
       x="43.976978"
       y="176.95641"
       id="text1501"><tspan
         sodipodi:role="line"
         id="tspan1499"
         style="fill:#000000;stroke:none;stroke-width:3.15727"
         x="43.976978"
         y="176.95641">S</tspan></text>
    <text
       xml:space="preserve"
       style="font-size:6.26371px;font-family:'Open Sans';-inkscape-font-specification:'Open Sans';fill:#000080;stroke:none;stroke-width:1.97283;stroke-dasharray:none"
       x="130.19598"
       y="114.94205"
       id="text1570"><tspan
         sodipodi:role="line"
         id="tspan1568"
         style="fill:#000080;stroke:none;stroke-width:1.97283"
         x="130.19598"
         y="114.94205">b(y)</tspan></text>
    <path
       style="fill:#000080;stroke:#000080;stroke-width:0.930302;stroke-dasharray:0.930302, 0.930302;stroke-dashoffset:0"
       d="M 97.269719,159.76758 130.05353,128.39025"
       id="path1737"
       sodipodi:nodetypes="cc" />
    <path
       style="fill:none;stroke:#000080;stroke-width:0.930302;stroke-dasharray:none;stroke-dashoffset:0"
       d="m 97.347369,138.0928 c 0.839081,-1.25861 1.595181,-2.62806 2.505788,-3.8422 0.446833,-0.59578 1.059033,-1.07794 1.503473,-1.67053 0.0747,-0.0996 0.079,-0.24606 0.16705,-0.3341 0.25983,-0.25983 0.70429,-0.4447 1.00232,-0.66821 1.20161,-0.9012 -0.35255,0.18549 0.50115,-0.66821 0.088,-0.088 0.24607,-0.079 0.33411,-0.16706 1.25409,-1.25408 1.97737,-2.80354 3.00695,-4.17631 0.22051,-0.29401 0.28064,-0.7083 0.50115,-1.00232 0.86648,-1.1553 2.67569,-2.43374 3.8422,-3.34104 0.76642,-0.5961 1.42055,-1.4703 2.33875,-1.83758 0.60417,-0.24167 1.39176,-0.53202 2.00462,-0.6682 0.32616,-0.0725 0.6747,0.0655 1.00232,0 0.41552,-0.0831 0.93347,-0.1998 1.33642,-0.33411 0.25057,-0.0835 0.58468,0.0835 0.83526,0 0.0747,-0.0249 0.0899,-0.15161 0.16705,-0.16706 0.21841,-0.0436 0.4498,0.0437 0.66821,0 0.0772,-0.0154 0.0966,-0.13183 0.16706,-0.16704 0.33442,-0.16721 0.9762,0.013 1.33641,-0.16706 0.38367,-0.19183 0.74717,-0.22855 1.16937,-0.33411 0.33374,-0.0834 0.56077,-0.3639 0.83527,-0.50115 0.22406,-0.11204 0.62465,-0.0618 0.83526,-0.16705 0.62021,-0.31011 1.30296,-0.43432 2.00462,-0.66821 0.48837,-0.1628 1.31821,0 1.83758,0 0.10195,0 0.60312,0.0651 0.66821,0 0.0557,-0.0557 0.11137,-0.22273 0.16706,-0.16706 0.25658,0.25659 -0.31883,0.3494 -0.16706,0.50117 0.0835,0.0835 0.25058,0.0835 0.33411,0.16704 0.34563,0.34565 -0.52818,-0.0135 0.16705,0.33411 0.0542,0.0271 0.82178,0.027 0.83527,0 0.31174,-0.62469 0.53274,-1.29069 0.79913,-1.93603"
       id="path1857"
       sodipodi:nodetypes="csscsscsssssssscssssscssssscscc" />
    <path
       style="fill:none;stroke:#000080;stroke-width:0.930302;stroke-dasharray:0.930302, 0.930302;stroke-dashoffset:0"
       d="M 97.269719,159.76758 V 138.19473"
       id="path1922" />
    <path
       style="fill:none;stroke:#000080;stroke-width:0.930302;stroke-dasharray:0.930302, 0.930302;stroke-dashoffset:0"
       d="M 130.05353,128.39025 V 116.11048"
       id="path1924" />
    <path
       style="fill:none;stroke:#ff6600;stroke-width:0.930302;stroke-dasharray:none;stroke-dashoffset:0"
       d="m 75.956573,133.95398 c 1.3023,-1.38311 2.928092,0.018 4.333651,-0.33337 0.405695,-0.10142 0.739956,-0.3912 1.122093,-0.56104 1.686553,-0.74958 3.369326,-1.48051 5.049413,-2.24419 2.060895,-0.93676 4.464973,-1.53117 6.452027,-2.52471 1.138911,-0.56944 2.148027,-0.99653 3.366276,-1.40261 1.426495,-0.4755 2.980067,-1.42566 4.207837,-2.24418 0.64916,-0.43277 1.53712,-0.48803 2.24419,-0.84157 0.11828,-0.0592 0.18702,-0.18702 0.28053,-0.28052 0.18701,-0.0935 0.36691,-0.20287 0.56104,-0.28053 2.82382,-1.12952 -0.5956,0.21903 1.40262,-0.28052 0.66393,-0.16599 1.31155,-0.6242 1.96366,-0.84157 0.5829,-0.1943 7.9618,-0.1836 8.69621,0 0.20284,0.0507 0.3582,0.22981 0.56105,0.28052 0.52804,0.13201 1.15509,-0.13201 1.68314,0 1.38461,0.34616 5.53294,1.32512 6.45202,2.24419 0.58284,0.58284 1.54934,0.77467 2.24418,1.12209 0.16728,0.0836 0.39378,-0.0836 0.56105,0 0.43476,0.21738 0.95701,0.69303 1.40262,0.84157 0.17741,0.0592 0.37961,-0.0454 0.56104,0 0.51735,0.12933 0.71465,0.35732 1.1221,0.56105 0.16726,0.0836 0.39376,-0.0836 0.56104,0 0.46611,0.23305 0.8478,0.3761 1.40261,0.56105 0.32507,0.10835 0.79573,-0.0816 1.12209,0 0.80759,0.20189 1.74979,0.30273 2.52471,0.56103 0.29057,0.0969 0.56327,0.42191 0.84157,0.56105 0.31873,0.15936 0.72123,-0.0602 1.40261,0.28052 0.29431,0.14716 1.17871,-0.22389 1.40262,0 0.0661,0.0662 -0.0661,0.21441 0,0.28053 0.29978,0.29978 0.56104,-0.39879 0.56104,0.28052 0,0.18702 0,0.74807 0,0.56105 0,-0.24494 0,-0.48988 0,-0.73481"
       id="path1991" />
    <path
       style="fill:#000080;stroke:none;stroke-width:0.292146;stroke-dasharray:0.292146, 0.292146;stroke-dashoffset:0"
       d="m 116.477,138.83302 3.81838,-1.02313 -1.02421,3.82238 z"
       id="path2256" />
    <text
       xml:space="preserve"
       style="font-size:6.26371px;font-family:'Open Sans';-inkscape-font-specification:'Open Sans';fill:#000080;stroke:none;stroke-width:1.97283;stroke-dasharray:none"
       x="116.18951"
       y="146.10373"
       id="text2260"><tspan
         sodipodi:role="line"
         id="tspan2258"
         style="fill:#000080;stroke:none;stroke-width:1.97283"
         x="116.18951"
         y="146.10373">y</tspan></text>
    <path
       style="fill:none;stroke:#ff6600;stroke-width:0.930302;stroke-dasharray:0.930302, 0.930302;stroke-dashoffset:0"
       d="m 140.04161,130.25434 v 18.49563 H 76.193368 v -15.01506"
       id="path3905" />
    <path
       style="fill:#ff6600;stroke:none;stroke-width:0.292146;stroke-dasharray:0.292146, 0.292146;stroke-dashoffset:0"
       d="m 126.79623,146.772 3.42347,1.97654 -3.42706,1.97862 z"
       id="path3907" />
    <text
       xml:space="preserve"
       style="font-size:6.26371px;font-family:'Open Sans';-inkscape-font-specification:'Open Sans';fill:#ff6600;stroke:none;stroke-width:1.97283;stroke-dasharray:none"
       x="123.65467"
       y="154.07922"
       id="text3911"><tspan
         sodipodi:role="line"
         id="tspan3909"
         style="fill:#ff6600;stroke:none;stroke-width:1.97283"
         x="123.65467"
         y="154.07922">x</tspan></text>
    <text
       xml:space="preserve"
       style="font-size:6.26371px;font-family:'Open Sans';-inkscape-font-specification:'Open Sans';fill:#ff6600;stroke:none;stroke-width:1.97283;stroke-dasharray:none"
       x="142.99591"
       y="133.88054"
       id="text4017"><tspan
         sodipodi:role="line"
         id="tspan4015"
         style="fill:#ff6600;stroke:none;stroke-width:1.97283"
         x="142.99591"
         y="133.88054">a(x)</tspan></text>
  </g>
</svg>
