<?xml version="1.0" encoding="UTF-8" standalone="no"?>
<!-- Created with Inkscape (http://www.inkscape.org/) -->

<svg
   version="1.1"
   id="svg1"
   width="974.16669"
   height="603.91083"
   viewBox="0 0 974.16669 603.91083"
   sodipodi:docname="index-2.pdf"
   xmlns:inkscape="http://www.inkscape.org/namespaces/inkscape"
   xmlns:sodipodi="http://sodipodi.sourceforge.net/DTD/sodipodi-0.dtd"
   xmlns="http://www.w3.org/2000/svg"
   xmlns:svg="http://www.w3.org/2000/svg">
  <defs
     id="defs1">
    <clipPath
       clipPathUnits="userSpaceOnUse"
       id="clipPath3">
      <path
         d="m 53.825,39.496875 h 669.6 V 427.57687 h -669.6 z"
         id="path3" />
    </clipPath>
    <clipPath
       clipPathUnits="userSpaceOnUse"
       id="clipPath6">
      <path
         d="m 53.825,39.496875 h 669.6 V 427.57687 h -669.6 z"
         id="path6" />
    </clipPath>
    <clipPath
       clipPathUnits="userSpaceOnUse"
       id="clipPath9">
      <path
         d="m 53.825,39.496875 h 669.6 V 427.57687 h -669.6 z"
         id="path9" />
    </clipPath>
    <clipPath
       clipPathUnits="userSpaceOnUse"
       id="clipPath12">
      <path
         d="m 53.825,39.496875 h 669.6 V 427.57687 h -669.6 z"
         id="path12" />
    </clipPath>
    <clipPath
       clipPathUnits="userSpaceOnUse"
       id="clipPath15">
      <path
         d="m 53.825,39.496875 h 669.6 V 427.57687 h -669.6 z"
         id="path15" />
    </clipPath>
    <clipPath
       clipPathUnits="userSpaceOnUse"
       id="clipPath17">
      <path
         d="M -1021,-463 H 1794 V 1233 H -1021 Z"
         transform="translate(3.5714298e-5,-1.1907145e-4)"
         id="path17" />
    </clipPath>
    <clipPath
       clipPathUnits="userSpaceOnUse"
       id="clipPath20">
      <path
         d="m 53.825,39.496875 h 669.6 V 427.57687 h -669.6 z"
         id="path20" />
    </clipPath>
    <clipPath
       clipPathUnits="userSpaceOnUse"
       id="clipPath22">
      <path
         d="M -1021,-463 H 1794 V 1233 H -1021 Z"
         transform="translate(3.5714298e-5,-3.1382866e-4)"
         id="path22" />
    </clipPath>
    <clipPath
       clipPathUnits="userSpaceOnUse"
       id="clipPath25">
      <path
         d="m 53.825,39.496875 h 669.6 V 427.57687 h -669.6 z"
         id="path25" />
    </clipPath>
    <clipPath
       clipPathUnits="userSpaceOnUse"
       id="clipPath28">
      <path
         d="m 53.825,39.496875 h 669.6 V 427.57687 h -669.6 z"
         id="path28" />
    </clipPath>
    <clipPath
       clipPathUnits="userSpaceOnUse"
       id="clipPath31">
      <path
         d="m 53.825,39.496875 h 669.6 V 427.57687 h -669.6 z"
         id="path31" />
    </clipPath>
    <clipPath
       clipPathUnits="userSpaceOnUse"
       id="clipPath34">
      <path
         d="m 53.825,39.496875 h 669.6 V 427.57687 h -669.6 z"
         id="path34" />
    </clipPath>
    <clipPath
       clipPathUnits="userSpaceOnUse"
       id="clipPath37">
      <path
         d="m 53.825,39.496875 h 669.6 V 427.57687 h -669.6 z"
         id="path37" />
    </clipPath>
    <clipPath
       clipPathUnits="userSpaceOnUse"
       id="clipPath101">
      <path
         d="m 53.825,39.496875 h 669.6 V 427.57687 h -669.6 z"
         id="path101" />
    </clipPath>
    <clipPath
       clipPathUnits="userSpaceOnUse"
       id="clipPath103">
      <path
         d="m 53.825,39.496875 h 669.6 V 427.57687 h -669.6 z"
         id="path103" />
    </clipPath>
    <clipPath
       clipPathUnits="userSpaceOnUse"
       id="clipPath105">
      <path
         d="m 53.825,39.496875 h 669.6 V 427.57687 h -669.6 z"
         id="path105" />
    </clipPath>
  </defs>
  <sodipodi:namedview
     id="namedview1"
     pagecolor="#ffffff"
     bordercolor="#666666"
     borderopacity="1.0"
     inkscape:showpageshadow="2"
     inkscape:pageopacity="0.0"
     inkscape:pagecheckerboard="0"
     inkscape:deskcolor="#d1d1d1">
    <inkscape:page
       x="0"
       y="0"
       inkscape:label="1"
       id="page1"
       width="974.16669"
       height="603.91083"
       margin="0"
       bleed="0" />
  </sodipodi:namedview>
  <g
     id="g1"
     inkscape:groupmode="layer"
     inkscape:label="1">
    <path
       id="path1"
       d="m 53.825,39.496875 h 669.6 V 427.57687 h -669.6 z"
       style="fill:#ffffff;fill-opacity:1;fill-rule:nonzero;stroke:none"
       transform="matrix(1.3333333,0,0,-1.3333333,0,603.91083)" />
    <path
       id="path2"
       d="M 187.34244,39.496875 V 427.57687"
       style="fill:none;stroke:#b0b0b0;stroke-width:0.8;stroke-linecap:square;stroke-linejoin:round;stroke-miterlimit:10;stroke-dasharray:none;stroke-opacity:1"
       transform="matrix(1.3333333,0,0,-1.3333333,0,603.91083)"
       clip-path="url(#clipPath3)" />
    <path
       id="path4"
       d="m 187.34244,39.496875 v -3.5"
       style="fill:#000000;fill-opacity:1;fill-rule:nonzero;stroke:#000000;stroke-width:0.8;stroke-linecap:butt;stroke-linejoin:round;stroke-miterlimit:10;stroke-dasharray:none;stroke-opacity:1"
       transform="matrix(1.3333333,0,0,-1.3333333,0,603.91083)" />
    <text
       id="text4"
       xml:space="preserve"
       transform="matrix(1.3333333,0,0,1.3333333,237.07116,570.70667)"><tspan
         style="font-variant:normal;font-weight:normal;font-size:10px;font-family:'DejaVu Sans';writing-mode:lr-tb;fill:#000000;fill-opacity:1;fill-rule:nonzero;stroke:none"
         x="0 6.3600001 12.72"
         y="0"
         sodipodi:role="line"
         id="tspan4">200</tspan></text>
    <path
       id="path5"
       d="M 321.53081,39.496875 V 427.57687"
       style="fill:none;stroke:#b0b0b0;stroke-width:0.8;stroke-linecap:square;stroke-linejoin:round;stroke-miterlimit:10;stroke-dasharray:none;stroke-opacity:1"
       transform="matrix(1.3333333,0,0,-1.3333333,0,603.91083)"
       clip-path="url(#clipPath6)" />
    <path
       id="path7"
       d="m 321.53081,39.496875 v -3.5"
       style="fill:#000000;fill-opacity:1;fill-rule:nonzero;stroke:#000000;stroke-width:0.8;stroke-linecap:butt;stroke-linejoin:round;stroke-miterlimit:10;stroke-dasharray:none;stroke-opacity:1"
       transform="matrix(1.3333333,0,0,-1.3333333,0,603.91083)" />
    <text
       id="text7"
       xml:space="preserve"
       transform="matrix(1.3333333,0,0,1.3333333,415.989,570.70667)"><tspan
         style="font-variant:normal;font-weight:normal;font-size:10px;font-family:'DejaVu Sans';writing-mode:lr-tb;fill:#000000;fill-opacity:1;fill-rule:nonzero;stroke:none"
         x="0 6.3600001 12.72"
         y="0"
         sodipodi:role="line"
         id="tspan7">400</tspan></text>
    <path
       id="path8"
       d="M 455.71919,39.496875 V 427.57687"
       style="fill:none;stroke:#b0b0b0;stroke-width:0.8;stroke-linecap:square;stroke-linejoin:round;stroke-miterlimit:10;stroke-dasharray:none;stroke-opacity:1"
       transform="matrix(1.3333333,0,0,-1.3333333,0,603.91083)"
       clip-path="url(#clipPath9)" />
    <path
       id="path10"
       d="m 455.71919,39.496875 v -3.5"
       style="fill:#000000;fill-opacity:1;fill-rule:nonzero;stroke:#000000;stroke-width:0.8;stroke-linecap:butt;stroke-linejoin:round;stroke-miterlimit:10;stroke-dasharray:none;stroke-opacity:1"
       transform="matrix(1.3333333,0,0,-1.3333333,0,603.91083)" />
    <text
       id="text10"
       xml:space="preserve"
       transform="matrix(1.3333333,0,0,1.3333333,594.90683,570.70667)"><tspan
         style="font-variant:normal;font-weight:normal;font-size:10px;font-family:'DejaVu Sans';writing-mode:lr-tb;fill:#000000;fill-opacity:1;fill-rule:nonzero;stroke:none"
         x="0 6.3600001 12.72"
         y="0"
         sodipodi:role="line"
         id="tspan10">600</tspan></text>
    <path
       id="path11"
       d="M 589.90756,39.496875 V 427.57687"
       style="fill:none;stroke:#b0b0b0;stroke-width:0.8;stroke-linecap:square;stroke-linejoin:round;stroke-miterlimit:10;stroke-dasharray:none;stroke-opacity:1"
       transform="matrix(1.3333333,0,0,-1.3333333,0,603.91083)"
       clip-path="url(#clipPath12)" />
    <path
       id="path13"
       d="m 589.90756,39.496875 v -3.5"
       style="fill:#000000;fill-opacity:1;fill-rule:nonzero;stroke:#000000;stroke-width:0.8;stroke-linecap:butt;stroke-linejoin:round;stroke-miterlimit:10;stroke-dasharray:none;stroke-opacity:1"
       transform="matrix(1.3333333,0,0,-1.3333333,0,603.91083)" />
    <text
       id="text13"
       xml:space="preserve"
       transform="matrix(1.3333333,0,0,1.3333333,773.82467,570.70667)"><tspan
         style="font-variant:normal;font-weight:normal;font-size:10px;font-family:'DejaVu Sans';writing-mode:lr-tb;fill:#000000;fill-opacity:1;fill-rule:nonzero;stroke:none"
         x="0 6.3600001 12.72"
         y="0"
         sodipodi:role="line"
         id="tspan13">800</tspan></text>
    <text
       id="text14"
       xml:space="preserve"
       transform="matrix(1.3333333,0,0,1.3333333,451.59375,590.9775)"><tspan
         style="font-variant:normal;font-weight:normal;font-size:12px;font-family:'DejaVu Sans';writing-mode:lr-tb;fill:#000000;fill-opacity:1;fill-rule:nonzero;stroke:none"
         x="0 6.0406251 10.722625 18.102625 25.722626 33.330624 40.710625 48.318626 54.918625 62.022625 65.838623 70.518623 79.818626 88.842628 95.142624"
         y="0"
         sodipodi:role="line"
         id="tspan14">Frequency [GHz]</tspan></text>
    <path
       id="path14"
       d="m 53.825,55.598782 h 669.6"
       style="fill:none;stroke:#b0b0b0;stroke-width:0.8;stroke-linecap:square;stroke-linejoin:round;stroke-miterlimit:10;stroke-dasharray:none;stroke-opacity:1"
       transform="matrix(1.3333333,0,0,-1.3333333,0,603.91083)"
       clip-path="url(#clipPath15)" />
    <path
       id="path16"
       d="m 53.825,55.598782 h -3.5"
       style="fill:#000000;fill-opacity:1;fill-rule:nonzero;stroke:#000000;stroke-width:0.8;stroke-linecap:butt;stroke-linejoin:round;stroke-miterlimit:10;stroke-dasharray:none;stroke-opacity:1"
       transform="matrix(1.3333333,0,0,-1.3333333,0,603.91083)" />
    <text
       id="text16"
       xml:space="preserve"
       transform="matrix(1.3333333,0,0,1.3333333,30.433333,534.42496)"><tspan
         style="font-variant:normal;font-weight:normal;font-size:10px;font-family:'DejaVu Sans';writing-mode:lr-tb;fill:#000000;fill-opacity:1;fill-rule:nonzero;stroke:none"
         x="0 6.3623047"
         y="0"
         sodipodi:role="line"
         id="tspan16">10</tspan><tspan
         style="font-variant:normal;font-weight:normal;font-size:7px;font-family:'DejaVu Sans';writing-mode:lr-tb;fill:#000000;fill-opacity:1;fill-rule:nonzero;stroke:none"
         x="18.685547"
         y="-3.828125"
         id="tspan17">2</tspan></text>
    <g
       id="g18">
      <path
         d="M 106,355 H 732 V 272 H 106 Z"
         style="fill:#000000;fill-opacity:1;fill-rule:nonzero;stroke:none"
         transform="matrix(0.00933333,0,0,-0.00933333,47.527083,529.32079)"
         clip-path="url(#clipPath17)"
         id="path18" />
    </g>
    <path
       id="path19"
       d="m 53.825,109.08816 h 669.6"
       style="fill:none;stroke:#b0b0b0;stroke-width:0.8;stroke-linecap:square;stroke-linejoin:round;stroke-miterlimit:10;stroke-dasharray:none;stroke-opacity:1"
       transform="matrix(1.3333333,0,0,-1.3333333,0,603.91083)"
       clip-path="url(#clipPath20)" />
    <path
       id="path21"
       d="m 53.825,109.08816 h -3.5"
       style="fill:#000000;fill-opacity:1;fill-rule:nonzero;stroke:#000000;stroke-width:0.8;stroke-linecap:butt;stroke-linejoin:round;stroke-miterlimit:10;stroke-dasharray:none;stroke-opacity:1"
       transform="matrix(1.3333333,0,0,-1.3333333,0,603.91083)" />
    <text
       id="text21"
       xml:space="preserve"
       transform="matrix(1.3333333,0,0,1.3333333,30.433333,463.65579)"><tspan
         style="font-variant:normal;font-weight:normal;font-size:10px;font-family:'DejaVu Sans';writing-mode:lr-tb;fill:#000000;fill-opacity:1;fill-rule:nonzero;stroke:none"
         x="0 6.3623047"
         y="0"
         sodipodi:role="line"
         id="tspan21">10</tspan><tspan
         style="font-variant:normal;font-weight:normal;font-size:7px;font-family:'DejaVu Sans';writing-mode:lr-tb;fill:#000000;fill-opacity:1;fill-rule:nonzero;stroke:none"
         x="18.685547"
         y="-3.828125"
         id="tspan22">1</tspan></text>
    <g
       id="g23">
      <path
         d="M 106,355 H 732 V 272 H 106 Z"
         style="fill:#000000;fill-opacity:1;fill-rule:nonzero;stroke:none"
         transform="matrix(0.00933333,0,0,-0.00933333,47.527083,458.55162)"
         clip-path="url(#clipPath22)"
         id="path23" />
    </g>
    <path
       id="path24"
       d="m 53.825,162.57753 h 669.6"
       style="fill:none;stroke:#b0b0b0;stroke-width:0.8;stroke-linecap:square;stroke-linejoin:round;stroke-miterlimit:10;stroke-dasharray:none;stroke-opacity:1"
       transform="matrix(1.3333333,0,0,-1.3333333,0,603.91083)"
       clip-path="url(#clipPath25)" />
    <path
       id="path26"
       d="m 53.825,162.57753 h -3.5"
       style="fill:#000000;fill-opacity:1;fill-rule:nonzero;stroke:#000000;stroke-width:0.8;stroke-linecap:butt;stroke-linejoin:round;stroke-miterlimit:10;stroke-dasharray:none;stroke-opacity:1"
       transform="matrix(1.3333333,0,0,-1.3333333,0,603.91083)" />
    <text
       id="text26"
       xml:space="preserve"
       transform="matrix(1.3333333,0,0,1.3333333,38.433333,391.78662)"><tspan
         style="font-variant:normal;font-weight:normal;font-size:10px;font-family:'DejaVu Sans';writing-mode:lr-tb;fill:#000000;fill-opacity:1;fill-rule:nonzero;stroke:none"
         x="0 6.3623047"
         y="0"
         sodipodi:role="line"
         id="tspan26">10</tspan><tspan
         style="font-variant:normal;font-weight:normal;font-size:7px;font-family:'DejaVu Sans';writing-mode:lr-tb;fill:#000000;fill-opacity:1;fill-rule:nonzero;stroke:none"
         x="12.820312"
         y="-3.828125"
         id="tspan27">0</tspan></text>
    <path
       id="path27"
       d="m 53.825,216.06691 h 669.6"
       style="fill:none;stroke:#b0b0b0;stroke-width:0.8;stroke-linecap:square;stroke-linejoin:round;stroke-miterlimit:10;stroke-dasharray:none;stroke-opacity:1"
       transform="matrix(1.3333333,0,0,-1.3333333,0,603.91083)"
       clip-path="url(#clipPath28)" />
    <path
       id="path29"
       d="m 53.825,216.06691 h -3.5"
       style="fill:#000000;fill-opacity:1;fill-rule:nonzero;stroke:#000000;stroke-width:0.8;stroke-linecap:butt;stroke-linejoin:round;stroke-miterlimit:10;stroke-dasharray:none;stroke-opacity:1"
       transform="matrix(1.3333333,0,0,-1.3333333,0,603.91083)" />
    <text
       id="text29"
       xml:space="preserve"
       transform="matrix(1.3333333,0,0,1.3333333,38.433333,321.01745)"><tspan
         style="font-variant:normal;font-weight:normal;font-size:10px;font-family:'DejaVu Sans';writing-mode:lr-tb;fill:#000000;fill-opacity:1;fill-rule:nonzero;stroke:none"
         x="0 6.3623047"
         y="0"
         sodipodi:role="line"
         id="tspan29">10</tspan><tspan
         style="font-variant:normal;font-weight:normal;font-size:7px;font-family:'DejaVu Sans';writing-mode:lr-tb;fill:#000000;fill-opacity:1;fill-rule:nonzero;stroke:none"
         x="12.820312"
         y="-3.828125"
         id="tspan30">1</tspan></text>
    <path
       id="path30"
       d="m 53.825,269.55629 h 669.6"
       style="fill:none;stroke:#b0b0b0;stroke-width:0.8;stroke-linecap:square;stroke-linejoin:round;stroke-miterlimit:10;stroke-dasharray:none;stroke-opacity:1"
       transform="matrix(1.3333333,0,0,-1.3333333,0,603.91083)"
       clip-path="url(#clipPath31)" />
    <path
       id="path32"
       d="m 53.825,269.55629 h -3.5"
       style="fill:#000000;fill-opacity:1;fill-rule:nonzero;stroke:#000000;stroke-width:0.8;stroke-linecap:butt;stroke-linejoin:round;stroke-miterlimit:10;stroke-dasharray:none;stroke-opacity:1"
       transform="matrix(1.3333333,0,0,-1.3333333,0,603.91083)" />
    <text
       id="text32"
       xml:space="preserve"
       transform="matrix(1.3333333,0,0,1.3333333,38.433333,249.14829)"><tspan
         style="font-variant:normal;font-weight:normal;font-size:10px;font-family:'DejaVu Sans';writing-mode:lr-tb;fill:#000000;fill-opacity:1;fill-rule:nonzero;stroke:none"
         x="0 6.3623047"
         y="0"
         sodipodi:role="line"
         id="tspan32">10</tspan><tspan
         style="font-variant:normal;font-weight:normal;font-size:7px;font-family:'DejaVu Sans';writing-mode:lr-tb;fill:#000000;fill-opacity:1;fill-rule:nonzero;stroke:none"
         x="12.820312"
         y="-3.828125"
         id="tspan33">2</tspan></text>
    <path
       id="path33"
       d="m 53.825,323.04566 h 669.6"
       style="fill:none;stroke:#b0b0b0;stroke-width:0.8;stroke-linecap:square;stroke-linejoin:round;stroke-miterlimit:10;stroke-dasharray:none;stroke-opacity:1"
       transform="matrix(1.3333333,0,0,-1.3333333,0,603.91083)"
       clip-path="url(#clipPath34)" />
    <path
       id="path35"
       d="m 53.825,323.04566 h -3.5"
       style="fill:#000000;fill-opacity:1;fill-rule:nonzero;stroke:#000000;stroke-width:0.8;stroke-linecap:butt;stroke-linejoin:round;stroke-miterlimit:10;stroke-dasharray:none;stroke-opacity:1"
       transform="matrix(1.3333333,0,0,-1.3333333,0,603.91083)" />
    <text
       id="text35"
       xml:space="preserve"
       transform="matrix(1.3333333,0,0,1.3333333,38.433333,177.82912)"><tspan
         style="font-variant:normal;font-weight:normal;font-size:10px;font-family:'DejaVu Sans';writing-mode:lr-tb;fill:#000000;fill-opacity:1;fill-rule:nonzero;stroke:none"
         x="0 6.3623047"
         y="0"
         sodipodi:role="line"
         id="tspan35">10</tspan><tspan
         style="font-variant:normal;font-weight:normal;font-size:7px;font-family:'DejaVu Sans';writing-mode:lr-tb;fill:#000000;fill-opacity:1;fill-rule:nonzero;stroke:none"
         x="12.820312"
         y="-3.828125"
         id="tspan36">3</tspan></text>
    <path
       id="path36"
       d="m 53.825,376.53504 h 669.6"
       style="fill:none;stroke:#b0b0b0;stroke-width:0.8;stroke-linecap:square;stroke-linejoin:round;stroke-miterlimit:10;stroke-dasharray:none;stroke-opacity:1"
       transform="matrix(1.3333333,0,0,-1.3333333,0,603.91083)"
       clip-path="url(#clipPath37)" />
    <path
       id="path38"
       d="m 53.825,376.53504 h -3.5"
       style="fill:#000000;fill-opacity:1;fill-rule:nonzero;stroke:#000000;stroke-width:0.8;stroke-linecap:butt;stroke-linejoin:round;stroke-miterlimit:10;stroke-dasharray:none;stroke-opacity:1"
       transform="matrix(1.3333333,0,0,-1.3333333,0,603.91083)" />
    <text
       id="text38"
       xml:space="preserve"
       transform="matrix(1.3333333,0,0,1.3333333,38.433333,107.05995)"><tspan
         style="font-variant:normal;font-weight:normal;font-size:10px;font-family:'DejaVu Sans';writing-mode:lr-tb;fill:#000000;fill-opacity:1;fill-rule:nonzero;stroke:none"
         x="0 6.3623047"
         y="0"
         sodipodi:role="line"
         id="tspan38">10</tspan><tspan
         style="font-variant:normal;font-weight:normal;font-size:7px;font-family:'DejaVu Sans';writing-mode:lr-tb;fill:#000000;fill-opacity:1;fill-rule:nonzero;stroke:none"
         x="12.820312"
         y="-3.828125"
         id="tspan39">4</tspan></text>
    <path
       id="path39"
       d="m 53.825,39.496875 h -2"
       style="fill:#000000;fill-opacity:1;fill-rule:nonzero;stroke:#000000;stroke-width:0.6;stroke-linecap:butt;stroke-linejoin:round;stroke-miterlimit:10;stroke-dasharray:none;stroke-opacity:1"
       transform="matrix(1.3333333,0,0,-1.3333333,0,603.91083)" />
    <path
       id="path40"
       d="m 53.825,43.73223 h -2"
       style="fill:#000000;fill-opacity:1;fill-rule:nonzero;stroke:#000000;stroke-width:0.6;stroke-linecap:butt;stroke-linejoin:round;stroke-miterlimit:10;stroke-dasharray:none;stroke-opacity:1"
       transform="matrix(1.3333333,0,0,-1.3333333,0,603.91083)" />
    <path
       id="path41"
       d="m 53.825,47.313172 h -2"
       style="fill:#000000;fill-opacity:1;fill-rule:nonzero;stroke:#000000;stroke-width:0.6;stroke-linecap:butt;stroke-linejoin:round;stroke-miterlimit:10;stroke-dasharray:none;stroke-opacity:1"
       transform="matrix(1.3333333,0,0,-1.3333333,0,603.91083)" />
    <path
       id="path42"
       d="m 53.825,50.415126 h -2"
       style="fill:#000000;fill-opacity:1;fill-rule:nonzero;stroke:#000000;stroke-width:0.6;stroke-linecap:butt;stroke-linejoin:round;stroke-miterlimit:10;stroke-dasharray:none;stroke-opacity:1"
       transform="matrix(1.3333333,0,0,-1.3333333,0,603.91083)" />
    <path
       id="path43"
       d="m 53.825,53.151242 h -2"
       style="fill:#000000;fill-opacity:1;fill-rule:nonzero;stroke:#000000;stroke-width:0.6;stroke-linecap:butt;stroke-linejoin:round;stroke-miterlimit:10;stroke-dasharray:none;stroke-opacity:1"
       transform="matrix(1.3333333,0,0,-1.3333333,0,603.91083)" />
    <path
       id="path44"
       d="m 53.825,71.700688 h -2"
       style="fill:#000000;fill-opacity:1;fill-rule:nonzero;stroke:#000000;stroke-width:0.6;stroke-linecap:butt;stroke-linejoin:round;stroke-miterlimit:10;stroke-dasharray:none;stroke-opacity:1"
       transform="matrix(1.3333333,0,0,-1.3333333,0,603.91083)" />
    <path
       id="path45"
       d="m 53.825,81.1197 h -2"
       style="fill:#000000;fill-opacity:1;fill-rule:nonzero;stroke:#000000;stroke-width:0.6;stroke-linecap:butt;stroke-linejoin:round;stroke-miterlimit:10;stroke-dasharray:none;stroke-opacity:1"
       transform="matrix(1.3333333,0,0,-1.3333333,0,603.91083)" />
    <path
       id="path46"
       d="m 53.825,87.802595 h -2"
       style="fill:#000000;fill-opacity:1;fill-rule:nonzero;stroke:#000000;stroke-width:0.6;stroke-linecap:butt;stroke-linejoin:round;stroke-miterlimit:10;stroke-dasharray:none;stroke-opacity:1"
       transform="matrix(1.3333333,0,0,-1.3333333,0,603.91083)" />
    <path
       id="path47"
       d="m 53.825,92.986251 h -2"
       style="fill:#000000;fill-opacity:1;fill-rule:nonzero;stroke:#000000;stroke-width:0.6;stroke-linecap:butt;stroke-linejoin:round;stroke-miterlimit:10;stroke-dasharray:none;stroke-opacity:1"
       transform="matrix(1.3333333,0,0,-1.3333333,0,603.91083)" />
    <path
       id="path48"
       d="m 53.825,97.221607 h -2"
       style="fill:#000000;fill-opacity:1;fill-rule:nonzero;stroke:#000000;stroke-width:0.6;stroke-linecap:butt;stroke-linejoin:round;stroke-miterlimit:10;stroke-dasharray:none;stroke-opacity:1"
       transform="matrix(1.3333333,0,0,-1.3333333,0,603.91083)" />
    <path
       id="path49"
       d="m 53.825,100.80255 h -2"
       style="fill:#000000;fill-opacity:1;fill-rule:nonzero;stroke:#000000;stroke-width:0.6;stroke-linecap:butt;stroke-linejoin:round;stroke-miterlimit:10;stroke-dasharray:none;stroke-opacity:1"
       transform="matrix(1.3333333,0,0,-1.3333333,0,603.91083)" />
    <path
       id="path50"
       d="m 53.825,103.9045 h -2"
       style="fill:#000000;fill-opacity:1;fill-rule:nonzero;stroke:#000000;stroke-width:0.6;stroke-linecap:butt;stroke-linejoin:round;stroke-miterlimit:10;stroke-dasharray:none;stroke-opacity:1"
       transform="matrix(1.3333333,0,0,-1.3333333,0,603.91083)" />
    <path
       id="path51"
       d="m 53.825,106.64062 h -2"
       style="fill:#000000;fill-opacity:1;fill-rule:nonzero;stroke:#000000;stroke-width:0.6;stroke-linecap:butt;stroke-linejoin:round;stroke-miterlimit:10;stroke-dasharray:none;stroke-opacity:1"
       transform="matrix(1.3333333,0,0,-1.3333333,0,603.91083)" />
    <path
       id="path52"
       d="m 53.825,125.19006 h -2"
       style="fill:#000000;fill-opacity:1;fill-rule:nonzero;stroke:#000000;stroke-width:0.6;stroke-linecap:butt;stroke-linejoin:round;stroke-miterlimit:10;stroke-dasharray:none;stroke-opacity:1"
       transform="matrix(1.3333333,0,0,-1.3333333,0,603.91083)" />
    <path
       id="path53"
       d="m 53.825,134.60908 h -2"
       style="fill:#000000;fill-opacity:1;fill-rule:nonzero;stroke:#000000;stroke-width:0.6;stroke-linecap:butt;stroke-linejoin:round;stroke-miterlimit:10;stroke-dasharray:none;stroke-opacity:1"
       transform="matrix(1.3333333,0,0,-1.3333333,0,603.91083)" />
    <path
       id="path54"
       d="m 53.825,141.29197 h -2"
       style="fill:#000000;fill-opacity:1;fill-rule:nonzero;stroke:#000000;stroke-width:0.6;stroke-linecap:butt;stroke-linejoin:round;stroke-miterlimit:10;stroke-dasharray:none;stroke-opacity:1"
       transform="matrix(1.3333333,0,0,-1.3333333,0,603.91083)" />
    <path
       id="path55"
       d="m 53.825,146.47563 h -2"
       style="fill:#000000;fill-opacity:1;fill-rule:nonzero;stroke:#000000;stroke-width:0.6;stroke-linecap:butt;stroke-linejoin:round;stroke-miterlimit:10;stroke-dasharray:none;stroke-opacity:1"
       transform="matrix(1.3333333,0,0,-1.3333333,0,603.91083)" />
    <path
       id="path56"
       d="m 53.825,150.71098 h -2"
       style="fill:#000000;fill-opacity:1;fill-rule:nonzero;stroke:#000000;stroke-width:0.6;stroke-linecap:butt;stroke-linejoin:round;stroke-miterlimit:10;stroke-dasharray:none;stroke-opacity:1"
       transform="matrix(1.3333333,0,0,-1.3333333,0,603.91083)" />
    <path
       id="path57"
       d="m 53.825,154.29192 h -2"
       style="fill:#000000;fill-opacity:1;fill-rule:nonzero;stroke:#000000;stroke-width:0.6;stroke-linecap:butt;stroke-linejoin:round;stroke-miterlimit:10;stroke-dasharray:none;stroke-opacity:1"
       transform="matrix(1.3333333,0,0,-1.3333333,0,603.91083)" />
    <path
       id="path58"
       d="m 53.825,157.39388 h -2"
       style="fill:#000000;fill-opacity:1;fill-rule:nonzero;stroke:#000000;stroke-width:0.6;stroke-linecap:butt;stroke-linejoin:round;stroke-miterlimit:10;stroke-dasharray:none;stroke-opacity:1"
       transform="matrix(1.3333333,0,0,-1.3333333,0,603.91083)" />
    <path
       id="path59"
       d="m 53.825,160.12999 h -2"
       style="fill:#000000;fill-opacity:1;fill-rule:nonzero;stroke:#000000;stroke-width:0.6;stroke-linecap:butt;stroke-linejoin:round;stroke-miterlimit:10;stroke-dasharray:none;stroke-opacity:1"
       transform="matrix(1.3333333,0,0,-1.3333333,0,603.91083)" />
    <path
       id="path60"
       d="m 53.825,178.67944 h -2"
       style="fill:#000000;fill-opacity:1;fill-rule:nonzero;stroke:#000000;stroke-width:0.6;stroke-linecap:butt;stroke-linejoin:round;stroke-miterlimit:10;stroke-dasharray:none;stroke-opacity:1"
       transform="matrix(1.3333333,0,0,-1.3333333,0,603.91083)" />
    <path
       id="path61"
       d="m 53.825,188.09845 h -2"
       style="fill:#000000;fill-opacity:1;fill-rule:nonzero;stroke:#000000;stroke-width:0.6;stroke-linecap:butt;stroke-linejoin:round;stroke-miterlimit:10;stroke-dasharray:none;stroke-opacity:1"
       transform="matrix(1.3333333,0,0,-1.3333333,0,603.91083)" />
    <path
       id="path62"
       d="m 53.825,194.78135 h -2"
       style="fill:#000000;fill-opacity:1;fill-rule:nonzero;stroke:#000000;stroke-width:0.6;stroke-linecap:butt;stroke-linejoin:round;stroke-miterlimit:10;stroke-dasharray:none;stroke-opacity:1"
       transform="matrix(1.3333333,0,0,-1.3333333,0,603.91083)" />
    <path
       id="path63"
       d="m 53.825,199.965 h -2"
       style="fill:#000000;fill-opacity:1;fill-rule:nonzero;stroke:#000000;stroke-width:0.6;stroke-linecap:butt;stroke-linejoin:round;stroke-miterlimit:10;stroke-dasharray:none;stroke-opacity:1"
       transform="matrix(1.3333333,0,0,-1.3333333,0,603.91083)" />
    <path
       id="path64"
       d="m 53.825,204.20036 h -2"
       style="fill:#000000;fill-opacity:1;fill-rule:nonzero;stroke:#000000;stroke-width:0.6;stroke-linecap:butt;stroke-linejoin:round;stroke-miterlimit:10;stroke-dasharray:none;stroke-opacity:1"
       transform="matrix(1.3333333,0,0,-1.3333333,0,603.91083)" />
    <path
       id="path65"
       d="m 53.825,207.7813 h -2"
       style="fill:#000000;fill-opacity:1;fill-rule:nonzero;stroke:#000000;stroke-width:0.6;stroke-linecap:butt;stroke-linejoin:round;stroke-miterlimit:10;stroke-dasharray:none;stroke-opacity:1"
       transform="matrix(1.3333333,0,0,-1.3333333,0,603.91083)" />
    <path
       id="path66"
       d="m 53.825,210.88325 h -2"
       style="fill:#000000;fill-opacity:1;fill-rule:nonzero;stroke:#000000;stroke-width:0.6;stroke-linecap:butt;stroke-linejoin:round;stroke-miterlimit:10;stroke-dasharray:none;stroke-opacity:1"
       transform="matrix(1.3333333,0,0,-1.3333333,0,603.91083)" />
    <path
       id="path67"
       d="m 53.825,213.61937 h -2"
       style="fill:#000000;fill-opacity:1;fill-rule:nonzero;stroke:#000000;stroke-width:0.6;stroke-linecap:butt;stroke-linejoin:round;stroke-miterlimit:10;stroke-dasharray:none;stroke-opacity:1"
       transform="matrix(1.3333333,0,0,-1.3333333,0,603.91083)" />
    <path
       id="path68"
       d="m 53.825,232.16882 h -2"
       style="fill:#000000;fill-opacity:1;fill-rule:nonzero;stroke:#000000;stroke-width:0.6;stroke-linecap:butt;stroke-linejoin:round;stroke-miterlimit:10;stroke-dasharray:none;stroke-opacity:1"
       transform="matrix(1.3333333,0,0,-1.3333333,0,603.91083)" />
    <path
       id="path69"
       d="m 53.825,241.58783 h -2"
       style="fill:#000000;fill-opacity:1;fill-rule:nonzero;stroke:#000000;stroke-width:0.6;stroke-linecap:butt;stroke-linejoin:round;stroke-miterlimit:10;stroke-dasharray:none;stroke-opacity:1"
       transform="matrix(1.3333333,0,0,-1.3333333,0,603.91083)" />
    <path
       id="path70"
       d="m 53.825,248.27072 h -2"
       style="fill:#000000;fill-opacity:1;fill-rule:nonzero;stroke:#000000;stroke-width:0.6;stroke-linecap:butt;stroke-linejoin:round;stroke-miterlimit:10;stroke-dasharray:none;stroke-opacity:1"
       transform="matrix(1.3333333,0,0,-1.3333333,0,603.91083)" />
    <path
       id="path71"
       d="m 53.825,253.45438 h -2"
       style="fill:#000000;fill-opacity:1;fill-rule:nonzero;stroke:#000000;stroke-width:0.6;stroke-linecap:butt;stroke-linejoin:round;stroke-miterlimit:10;stroke-dasharray:none;stroke-opacity:1"
       transform="matrix(1.3333333,0,0,-1.3333333,0,603.91083)" />
    <path
       id="path72"
       d="m 53.825,257.68973 h -2"
       style="fill:#000000;fill-opacity:1;fill-rule:nonzero;stroke:#000000;stroke-width:0.6;stroke-linecap:butt;stroke-linejoin:round;stroke-miterlimit:10;stroke-dasharray:none;stroke-opacity:1"
       transform="matrix(1.3333333,0,0,-1.3333333,0,603.91083)" />
    <path
       id="path73"
       d="m 53.825,261.27068 h -2"
       style="fill:#000000;fill-opacity:1;fill-rule:nonzero;stroke:#000000;stroke-width:0.6;stroke-linecap:butt;stroke-linejoin:round;stroke-miterlimit:10;stroke-dasharray:none;stroke-opacity:1"
       transform="matrix(1.3333333,0,0,-1.3333333,0,603.91083)" />
    <path
       id="path74"
       d="m 53.825,264.37263 h -2"
       style="fill:#000000;fill-opacity:1;fill-rule:nonzero;stroke:#000000;stroke-width:0.6;stroke-linecap:butt;stroke-linejoin:round;stroke-miterlimit:10;stroke-dasharray:none;stroke-opacity:1"
       transform="matrix(1.3333333,0,0,-1.3333333,0,603.91083)" />
    <path
       id="path75"
       d="m 53.825,267.10875 h -2"
       style="fill:#000000;fill-opacity:1;fill-rule:nonzero;stroke:#000000;stroke-width:0.6;stroke-linecap:butt;stroke-linejoin:round;stroke-miterlimit:10;stroke-dasharray:none;stroke-opacity:1"
       transform="matrix(1.3333333,0,0,-1.3333333,0,603.91083)" />
    <path
       id="path76"
       d="m 53.825,285.65819 h -2"
       style="fill:#000000;fill-opacity:1;fill-rule:nonzero;stroke:#000000;stroke-width:0.6;stroke-linecap:butt;stroke-linejoin:round;stroke-miterlimit:10;stroke-dasharray:none;stroke-opacity:1"
       transform="matrix(1.3333333,0,0,-1.3333333,0,603.91083)" />
    <path
       id="path77"
       d="m 53.825,295.0772 h -2"
       style="fill:#000000;fill-opacity:1;fill-rule:nonzero;stroke:#000000;stroke-width:0.6;stroke-linecap:butt;stroke-linejoin:round;stroke-miterlimit:10;stroke-dasharray:none;stroke-opacity:1"
       transform="matrix(1.3333333,0,0,-1.3333333,0,603.91083)" />
    <path
       id="path78"
       d="m 53.825,301.7601 h -2"
       style="fill:#000000;fill-opacity:1;fill-rule:nonzero;stroke:#000000;stroke-width:0.6;stroke-linecap:butt;stroke-linejoin:round;stroke-miterlimit:10;stroke-dasharray:none;stroke-opacity:1"
       transform="matrix(1.3333333,0,0,-1.3333333,0,603.91083)" />
    <path
       id="path79"
       d="m 53.825,306.94376 h -2"
       style="fill:#000000;fill-opacity:1;fill-rule:nonzero;stroke:#000000;stroke-width:0.6;stroke-linecap:butt;stroke-linejoin:round;stroke-miterlimit:10;stroke-dasharray:none;stroke-opacity:1"
       transform="matrix(1.3333333,0,0,-1.3333333,0,603.91083)" />
    <path
       id="path80"
       d="m 53.825,311.17911 h -2"
       style="fill:#000000;fill-opacity:1;fill-rule:nonzero;stroke:#000000;stroke-width:0.6;stroke-linecap:butt;stroke-linejoin:round;stroke-miterlimit:10;stroke-dasharray:none;stroke-opacity:1"
       transform="matrix(1.3333333,0,0,-1.3333333,0,603.91083)" />
    <path
       id="path81"
       d="m 53.825,314.76005 h -2"
       style="fill:#000000;fill-opacity:1;fill-rule:nonzero;stroke:#000000;stroke-width:0.6;stroke-linecap:butt;stroke-linejoin:round;stroke-miterlimit:10;stroke-dasharray:none;stroke-opacity:1"
       transform="matrix(1.3333333,0,0,-1.3333333,0,603.91083)" />
    <path
       id="path82"
       d="m 53.825,317.86201 h -2"
       style="fill:#000000;fill-opacity:1;fill-rule:nonzero;stroke:#000000;stroke-width:0.6;stroke-linecap:butt;stroke-linejoin:round;stroke-miterlimit:10;stroke-dasharray:none;stroke-opacity:1"
       transform="matrix(1.3333333,0,0,-1.3333333,0,603.91083)" />
    <path
       id="path83"
       d="m 53.825,320.59812 h -2"
       style="fill:#000000;fill-opacity:1;fill-rule:nonzero;stroke:#000000;stroke-width:0.6;stroke-linecap:butt;stroke-linejoin:round;stroke-miterlimit:10;stroke-dasharray:none;stroke-opacity:1"
       transform="matrix(1.3333333,0,0,-1.3333333,0,603.91083)" />
    <path
       id="path84"
       d="m 53.825,339.14757 h -2"
       style="fill:#000000;fill-opacity:1;fill-rule:nonzero;stroke:#000000;stroke-width:0.6;stroke-linecap:butt;stroke-linejoin:round;stroke-miterlimit:10;stroke-dasharray:none;stroke-opacity:1"
       transform="matrix(1.3333333,0,0,-1.3333333,0,603.91083)" />
    <path
       id="path85"
       d="m 53.825,348.56658 h -2"
       style="fill:#000000;fill-opacity:1;fill-rule:nonzero;stroke:#000000;stroke-width:0.6;stroke-linecap:butt;stroke-linejoin:round;stroke-miterlimit:10;stroke-dasharray:none;stroke-opacity:1"
       transform="matrix(1.3333333,0,0,-1.3333333,0,603.91083)" />
    <path
       id="path86"
       d="m 53.825,355.24948 h -2"
       style="fill:#000000;fill-opacity:1;fill-rule:nonzero;stroke:#000000;stroke-width:0.6;stroke-linecap:butt;stroke-linejoin:round;stroke-miterlimit:10;stroke-dasharray:none;stroke-opacity:1"
       transform="matrix(1.3333333,0,0,-1.3333333,0,603.91083)" />
    <path
       id="path87"
       d="m 53.825,360.43313 h -2"
       style="fill:#000000;fill-opacity:1;fill-rule:nonzero;stroke:#000000;stroke-width:0.6;stroke-linecap:butt;stroke-linejoin:round;stroke-miterlimit:10;stroke-dasharray:none;stroke-opacity:1"
       transform="matrix(1.3333333,0,0,-1.3333333,0,603.91083)" />
    <path
       id="path88"
       d="m 53.825,364.66849 h -2"
       style="fill:#000000;fill-opacity:1;fill-rule:nonzero;stroke:#000000;stroke-width:0.6;stroke-linecap:butt;stroke-linejoin:round;stroke-miterlimit:10;stroke-dasharray:none;stroke-opacity:1"
       transform="matrix(1.3333333,0,0,-1.3333333,0,603.91083)" />
    <path
       id="path89"
       d="m 53.825,368.24943 h -2"
       style="fill:#000000;fill-opacity:1;fill-rule:nonzero;stroke:#000000;stroke-width:0.6;stroke-linecap:butt;stroke-linejoin:round;stroke-miterlimit:10;stroke-dasharray:none;stroke-opacity:1"
       transform="matrix(1.3333333,0,0,-1.3333333,0,603.91083)" />
    <path
       id="path90"
       d="m 53.825,371.35138 h -2"
       style="fill:#000000;fill-opacity:1;fill-rule:nonzero;stroke:#000000;stroke-width:0.6;stroke-linecap:butt;stroke-linejoin:round;stroke-miterlimit:10;stroke-dasharray:none;stroke-opacity:1"
       transform="matrix(1.3333333,0,0,-1.3333333,0,603.91083)" />
    <path
       id="path91"
       d="m 53.825,374.0875 h -2"
       style="fill:#000000;fill-opacity:1;fill-rule:nonzero;stroke:#000000;stroke-width:0.6;stroke-linecap:butt;stroke-linejoin:round;stroke-miterlimit:10;stroke-dasharray:none;stroke-opacity:1"
       transform="matrix(1.3333333,0,0,-1.3333333,0,603.91083)" />
    <path
       id="path92"
       d="m 53.825,392.63694 h -2"
       style="fill:#000000;fill-opacity:1;fill-rule:nonzero;stroke:#000000;stroke-width:0.6;stroke-linecap:butt;stroke-linejoin:round;stroke-miterlimit:10;stroke-dasharray:none;stroke-opacity:1"
       transform="matrix(1.3333333,0,0,-1.3333333,0,603.91083)" />
    <path
       id="path93"
       d="m 53.825,402.05596 h -2"
       style="fill:#000000;fill-opacity:1;fill-rule:nonzero;stroke:#000000;stroke-width:0.6;stroke-linecap:butt;stroke-linejoin:round;stroke-miterlimit:10;stroke-dasharray:none;stroke-opacity:1"
       transform="matrix(1.3333333,0,0,-1.3333333,0,603.91083)" />
    <path
       id="path94"
       d="m 53.825,408.73885 h -2"
       style="fill:#000000;fill-opacity:1;fill-rule:nonzero;stroke:#000000;stroke-width:0.6;stroke-linecap:butt;stroke-linejoin:round;stroke-miterlimit:10;stroke-dasharray:none;stroke-opacity:1"
       transform="matrix(1.3333333,0,0,-1.3333333,0,603.91083)" />
    <path
       id="path95"
       d="m 53.825,413.92251 h -2"
       style="fill:#000000;fill-opacity:1;fill-rule:nonzero;stroke:#000000;stroke-width:0.6;stroke-linecap:butt;stroke-linejoin:round;stroke-miterlimit:10;stroke-dasharray:none;stroke-opacity:1"
       transform="matrix(1.3333333,0,0,-1.3333333,0,603.91083)" />
    <path
       id="path96"
       d="m 53.825,418.15786 h -2"
       style="fill:#000000;fill-opacity:1;fill-rule:nonzero;stroke:#000000;stroke-width:0.6;stroke-linecap:butt;stroke-linejoin:round;stroke-miterlimit:10;stroke-dasharray:none;stroke-opacity:1"
       transform="matrix(1.3333333,0,0,-1.3333333,0,603.91083)" />
    <path
       id="path97"
       d="m 53.825,421.7388 h -2"
       style="fill:#000000;fill-opacity:1;fill-rule:nonzero;stroke:#000000;stroke-width:0.6;stroke-linecap:butt;stroke-linejoin:round;stroke-miterlimit:10;stroke-dasharray:none;stroke-opacity:1"
       transform="matrix(1.3333333,0,0,-1.3333333,0,603.91083)" />
    <path
       id="path98"
       d="m 53.825,424.84076 h -2"
       style="fill:#000000;fill-opacity:1;fill-rule:nonzero;stroke:#000000;stroke-width:0.6;stroke-linecap:butt;stroke-linejoin:round;stroke-miterlimit:10;stroke-dasharray:none;stroke-opacity:1"
       transform="matrix(1.3333333,0,0,-1.3333333,0,603.91083)" />
    <path
       id="path99"
       d="m 53.825,427.57687 h -2"
       style="fill:#000000;fill-opacity:1;fill-rule:nonzero;stroke:#000000;stroke-width:0.6;stroke-linecap:butt;stroke-linejoin:round;stroke-miterlimit:10;stroke-dasharray:none;stroke-opacity:1"
       transform="matrix(1.3333333,0,0,-1.3333333,0,603.91083)" />
    <text
       id="text99"
       xml:space="preserve"
       transform="matrix(0,-1.3333333,1.3333333,0,21.766667,412.65333)"><tspan
         style="font-variant:normal;font-weight:normal;font-size:12px;font-family:'DejaVu Sans';writing-mode:lr-tb;fill:#000000;fill-opacity:1;fill-rule:nonzero;stroke:none"
         x="0 7.6199999 15.24 22.620001 29.219999 32.556 36.779999 40.116001 46.716 50.532001 58.536877 63.240875 67.944878 75.324875 82.932877 90.540878 97.896873 102.60088 105.93687 113.28088 120.88888 124.70487 129.38487 137.00487 145.23688 149.05287 153.09688 156.91287 163.86087 175.54887"
         y="0"
         sodipodi:role="line"
         id="tspan99">Specific Attenuation [dB / km]</tspan></text>
    <path
       id="path100"
       d="m 53.825,40.529589 0.670942,4.990526 0.670942,1.182694 1.341884,1.024755 2.012825,1.345019 1.341884,1.098663 1.341884,1.299647 2.012825,2.335 2.012826,2.793503 2.012826,3.246893 2.012825,3.703864 2.012826,4.179373 2.012826,4.694459 2.012825,5.278226 2.012826,5.97269 2.012826,6.84316 1.341883,5.180942 1.341884,5.823737 1.341884,6.66869 1.341884,7.85261 1.341883,9.71883 0.670942,6.1213 0.670942,7.96109 0.670942,10.8354 1.341884,29.83256 0.670942,14.91286 0.670942,12.08936 0.670941,8.21816 0.670942,4.71699 0.670942,2.26009 0.670942,1.62756 0.670942,0.62375 0.670942,-1.56913 0.670942,-5.92173 0.670942,-10.66406 1.341883,-29.06532 0.670942,-15.06944 0.670942,-12.55454 0.670942,-9.32429 0.670942,-6.81166 1.34188,-9.92547 1.34189,-7.60799 1.34188,-6.20851 1.34189,-5.21738 1.34188,-4.457 1.34188,-3.839877 1.34189,-3.315512 1.34188,-2.851232 1.34188,-2.423676 1.34189,-2.014308 1.34188,-1.606722 1.34188,-1.184704 1.34189,-0.730578 0.67094,-0.179374 0.67094,-0.04408 0.67094,0.101975 0.67095,0.260905 0.67094,0.435166 0.67094,0.627638 0.67094,0.841722 0.67094,1.081479 0.67095,1.351818 0.67094,1.658758 0.67094,2.009797 0.67094,2.414479 0.67094,2.885206 0.67095,3.438515 0.67094,4.097025 0.67094,4.89237 0.67094,5.86937 0.67094,7.09053 0.67094,8.63266 0.67095,10.53114 1.34188,24.47402 0.67094,3.36449 0.67094,-9.24247 1.34189,-24.87603 0.67094,-9.82776 1.34188,-14.94798 1.34189,-10.698783 1.34188,-7.97196 1.34188,-6.114806 1.34189,-4.789822 1.34188,-3.811937 1.34189,-3.071478 1.34188,-2.499197 1.34188,-2.049237 1.34189,-1.690135 1.34188,-1.399726 1.34188,-1.162045 2.01283,-1.384754 2.01283,-1.044377 2.01282,-0.778635 2.01283,-0.567682 2.68376,-0.498327 2.68377,-0.26715 3.35471,-0.08632 4.02565,0.167185 4.6966,0.462507 5.36753,0.77154 6.70942,1.201012 9.39319,1.934949 16.1026,3.594072 30.19239,6.733413 33.54709,7.370959 4.69659,1.271929 3.35471,1.127558 2.01283,0.866045 2.01283,1.149935 1.34188,1.052002 1.34188,1.465349 0.67094,0.981351 0.67095,1.231931 0.67094,1.584909 0.67094,2.092602 0.67094,2.836988 0.67094,3.942995 0.67095,5.58061 0.67094,7.87934 1.34188,20.15795 0.67094,0.10807 2.01283,-27.17901 0.67094,-5.25404 0.67094,-3.607864 0.67095,-2.496223 0.67094,-1.747859 0.67094,-1.236943 0.67094,-0.88092 0.67094,-0.627117 0.67094,-0.44192 1.34189,-0.501483 1.34188,-0.16417 1.34189,0.05628 2.01282,0.372279 2.01283,0.643368 2.01282,0.897257 2.01283,1.183568 1.34188,0.9854 1.34189,1.185171 1.34188,1.439108 1.34188,1.769527 1.34189,2.208491 1.34188,2.80329 1.34188,3.62537 1.34189,4.78607 1.34188,6.46616 0.67094,4.10491 0.67095,4.87289 0.67094,5.83712 0.67094,7.06342 0.67094,8.63366 0.67094,10.59425 1.34189,25.06661 0.67094,3.83108 0.67094,-9.07107 1.34188,-24.40843 0.67095,-9.40346 0.67094,-7.62625 0.67094,-6.2307 0.67094,-5.1393 1.34189,-7.86088 1.34188,-5.58891 1.34188,-4.05579 1.34189,-2.98915 1.34188,-2.22877 1.34188,-1.67493 1.34189,-1.26313 1.34188,-0.95048 1.34189,-0.70776 1.34188,-0.514501 2.01282,-0.482308 2.01283,-0.196105 2.01283,0.05903 2.01282,0.321493 1.34189,0.384355 1.34188,0.556116 1.34188,0.78148 1.34189,1.09427 1.34188,1.55134 0.67094,1.01762 0.67094,1.23497 0.67095,1.51191 0.67094,1.86888 0.67094,2.33426 0.67094,2.94764 0.67094,3.76419 0.67095,4.86005 0.67094,6.33552 0.67094,8.29832 0.67094,10.72582 0.67094,12.67008 0.67095,9.42069 0.67094,-3.51047 1.34188,-23.79183 0.67094,-9.31862 0.67095,-7.11551 0.67094,-5.42474 0.67094,-4.16719 0.67094,-3.23343 0.67094,-2.53552 0.67094,-2.00897 0.67095,-1.6076 1.34188,-2.35581 1.34188,-1.58516 1.34189,-1.09453 1.34188,-0.77034 1.34188,-0.54887 2.01283,-0.54536 2.01283,-0.32587 2.68376,-0.22182 4.02565,-0.0655 5.36754,0.17542 8.0513,0.52095 13.41884,1.12561 39.58557,3.64898 32.87615,3.15223 8.05131,0.96445 4.69659,0.75183 3.35471,0.77175 2.01282,0.67371 1.34189,0.61669 1.34188,0.84675 1.34189,1.23987 0.67094,0.85897 0.67094,1.10235 0.67094,1.4486 0.67094,1.95241 0.67095,2.70118 0.67094,3.8311 0.67094,5.53225 0.67094,7.95359 1.34188,19.98193 0.67095,-1.36228 1.34188,-20.19675 0.67094,-7.22732 0.67094,-4.95288 0.67095,-3.38768 0.67094,-2.35116 0.67094,-1.66243 0.67094,-1.19665 0.67094,-0.8745 0.67095,-0.64633 1.34188,-0.83914 1.34188,-0.45859 1.34189,-0.22706 2.01282,-0.0677 2.01283,0.1543 2.68377,0.47309 2.01282,0.55427 2.01283,0.76214 2.01282,1.04326 1.34189,0.91287 1.34188,1.15481 1.34188,1.48646 1.34189,1.9529 1.34188,2.62613 0.67094,1.6606 0.67094,1.96376 0.67095,2.33928 0.67094,2.80796 0.67094,3.3977 0.67094,4.14631 0.67094,5.10557 0.67095,6.34582 0.67094,7.95545 0.67094,9.99822 1.34188,24.8383 0.67095,4.85736 0.67094,-8.47587 1.34188,-24.30391 0.67094,-9.18369 0.67095,-7.28244 0.67094,-5.8043 0.67094,-4.66584 0.67094,-3.78321 0.67094,-3.09241 1.34189,-4.65837 1.34188,-3.24173 1.34188,-2.30801 1.34189,-1.67469 1.34188,-1.23326 1.34189,-0.91731 1.34188,-0.6851 2.01282,-0.7114 2.01283,-0.43435 2.01283,-0.22428 2.01282,-0.0447 2.01283,0.13532 2.01282,0.35265 1.34189,0.4004 1.34188,0.59388 1.34188,0.88433 1.34189,1.35033 0.67094,0.94434 0.67094,1.20634 0.67094,1.56454 0.67095,2.06336 0.67094,2.77055 0.67094,3.78878 0.67094,5.26874 0.67094,7.40415 0.67094,10.2912 0.67095,12.94934 0.67094,9.32843 0.67094,-5.5707 1.34188,-24.06536 0.67095,-8.11144 0.67094,-5.76748 0.67094,-4.12838 0.67094,-3.00108 0.67094,-2.22078 0.67095,-1.67294 0.67094,-1.28166 0.67094,-0.99719 1.34188,-1.41522 1.34189,-0.92134 1.34188,-0.62182 2.01283,-0.59568 2.01282,-0.35494 2.68377,-0.2619 4.02565,-0.15034 6.03848,0.0306 10.06413,0.31682 19.45731,0.88592 53.00441,2.61905 v 0"
       style="fill:none;stroke:#ff0000;stroke-width:1.5;stroke-linecap:square;stroke-linejoin:round;stroke-miterlimit:10;stroke-dasharray:none;stroke-opacity:1"
       transform="matrix(1.3333333,0,0,-1.3333333,0,603.91083)"
       clip-path="url(#clipPath101)" />
    <path
       id="path102"
       d="m 55.783978,-1 0.05385,1.089538 0.670942,10.648537 1.341883,16.449564 1.341884,12.937099 2.012826,16.566975 2.012825,16.407839 1.341884,12.667294 1.341884,15.281274 1.341884,16.1099 0.670942,5.12823 0.670941,0.93219 0.670942,-2.59827 1.341884,-8.06143 0.670942,-3.32715 0.670942,-2.5334 0.670942,-1.81215 0.670942,-1.21454 0.670942,-0.73911 0.670941,-0.36813 0.670942,-0.0813 0.670942,0.13944 0.670942,0.30903 1.341884,0.97793 1.341884,1.28772 2.683767,3.02831 10.064128,11.88714 6.709419,7.39911 5.367532,4.67628 5.36754,4.58771 5.36753,4.26337 5.36754,3.97576 6.03847,4.19803 8.72225,5.77504 5.36753,3.27922 8.05131,5.15371 4.02565,2.81681 2.68376,2.08523 2.68377,2.37327 2.01283,2.07691 2.01282,2.4688 1.34189,1.95902 1.34188,2.30877 1.34188,2.78214 1.34189,3.43037 1.34188,4.32736 1.34189,5.57679 1.34188,7.31027 1.34188,9.62538 1.34189,12.18228 1.34188,12.24215 0.67094,3.26601 0.67094,-0.49169 0.67095,-3.89007 2.68376,-22.40848 1.34189,-8.08463 1.34188,-5.86281 1.34188,-4.21836 1.34189,-3.03492 1.34188,-2.18429 1.34189,-1.56821 1.34188,-1.11704 1.34188,-0.78246 1.34189,-0.53119 1.34188,-0.34005 2.01283,-0.24474 2.01282,-0.0147 2.68377,0.22434 3.35471,0.53728 4.02565,0.87581 6.03848,1.57749 8.0513,2.35322 10.73507,3.36855 9.39319,3.15826 6.03847,2.23288 4.02566,1.6805 3.3547,1.63756 2.01283,1.17001 2.01283,1.41379 1.34188,1.15702 1.34188,1.42569 1.34189,1.83972 1.34188,2.50578 0.67094,1.63245 0.67095,1.99245 0.67094,2.46478 0.67094,3.06713 1.34188,8.10044 2.01283,15.03629 0.67094,2.59862 0.67094,-1.28919 0.67094,-4.3424 1.34189,-10.28255 0.67094,-4.09535 0.67094,-3.21603 0.67094,-2.46382 0.67094,-1.86252 0.67095,-1.39408 0.67094,-1.03275 0.67094,-0.7576 0.67094,-0.54996 0.67094,-0.38614 1.34189,-0.38778 1.34188,-0.0101 1.34189,0.2597 1.34188,0.4689 1.34188,0.64683 2.01283,1.28117 2.01283,1.67367 1.34188,1.36976 1.34188,1.61738 1.34189,1.9219 1.34188,2.3057 1.34188,2.7994 1.34189,3.44556 1.34188,4.30441 1.34188,5.46128 1.34189,7.0342 1.34188,9.16278 1.34189,11.8568 2.01282,20.03439 0.67094,3.14797 0.67095,-1.23707 0.67094,-4.91484 2.01282,-19.62502 1.34189,-10.35784 1.34188,-7.70827 1.34188,-5.70549 1.34189,-4.26714 1.34188,-3.14741 1.34189,-2.31309 1.34188,-1.68684 1.34188,-1.20865 1.34189,-0.83702 1.34188,-0.54254 1.34188,-0.30396 1.34189,-0.10553 1.34188,0.0647 2.01283,0.37765 2.01282,0.69053 2.01283,1.01106 1.34188,0.87539 1.34189,1.06989 1.34188,1.31353 1.34188,1.6372 1.34189,2.09669 1.34188,2.80612 0.67094,1.81214 0.67095,2.22146 0.67094,2.7996 0.67094,3.58828 2.01282,12.59296 0.67095,0.91304 0.67094,0.40325 0.67094,2.1488 0.67094,3.72065 0.67094,4.6546 2.01283,18.69831 0.67094,2.56424 0.67094,-2.44073 0.67095,-5.96744 1.34188,-13.59102 0.67094,-5.69065 0.67094,-4.73725 0.67094,-3.87571 0.67095,-3.13988 0.67094,-2.52466 0.67094,-2.01322 0.67094,-1.58669 0.67094,-1.22723 0.67095,-0.91873 0.67094,-0.64637 0.67094,-0.3956 0.67094,-0.15052 0.67094,0.10867 0.67095,0.41004 0.67094,0.79566 0.67094,1.32257 0.67094,2.01199 1.34189,4.86989 0.67094,1.65474 1.34188,4.87385 0.67094,0.44112 0.67094,-2.60852 0.67095,-3.56607 0.67094,-2.89486 0.67094,-1.93902 0.67094,-1.17734 0.67094,-0.63841 0.67095,-0.25492 0.67094,0.0383 0.67094,0.29191 0.67094,0.54583 0.67094,0.81904 1.34189,2.0042 0.67094,0.34638 2.01283,-0.64081 0.67094,0.12723 1.34188,0.68813 1.34188,1.01986 2.01283,1.91755 1.34188,1.61637 1.34189,1.78552 1.34188,1.12971 1.34188,1.47436 2.01283,2.6048 2.68377,3.91312 2.68377,4.4139 2.01282,3.68707 2.01283,4.0668 2.01282,4.51674 2.01283,5.06221 2.01282,5.74245 2.01283,6.62435 1.34188,5.06088 1.34189,5.75364 1.34188,6.70483 1.34188,8.03295 2.01283,13.13231 1.34188,8.39119 2.01283,16.21962 1.34188,11.83946 0.67094,4.56318 0.67095,1.62247 0.67094,-2.07528 0.67094,-4.94608 3.35471,-30.63209 1.34188,-9.47975 1.34189,-7.98132 1.34188,-6.81986 1.34189,-5.91372 1.34188,-5.19374 2.01282,-6.72918 2.01283,-5.7325 2.01283,-4.95277 2.01282,-4.32359 2.01283,-3.80166 2.01282,-3.35702 2.01283,-2.96693 2.01282,-2.61149 2.01283,-2.26857 2.01283,-1.90538 1.34188,-1.03151 1.34188,-0.77991 1.34189,-0.41905 0.67094,-0.0122 0.67094,0.17546 0.67094,0.43017 0.67094,0.78366 0.67095,1.28167 0.67094,1.98291 0.67094,2.93651 0.67094,4.084 1.34189,9.28012 0.67094,0.8644 0.67094,-3.42112 1.34188,-10.3721 0.67094,-4.07049 0.67095,-3.12361 0.67094,-2.38572 0.67094,-1.84658 0.67094,-1.45814 1.34189,-2.14526 1.34188,-1.50638 1.34188,-1.12387 1.34189,-0.87224 2.01282,-0.96671 1.34189,-0.41577 0.67094,-0.0973 0.67094,0.0363 0.67094,0.19247 0.67094,0.0387 2.01283,-1.19373 1.34188,-0.24805 1.34189,0.0977 0.67094,0.20359 1.34188,0.78656 0.67095,0.44569 0.67094,0.17723 0.67094,-0.26046 2.01282,-1.56724 1.34189,-0.57688 1.34188,-0.27736 2.01283,-0.12832 2.68377,0.11528 2.68376,0.32961 3.35471,0.66613 2.68377,0.735 2.68377,0.92752 2.68377,1.14082 2.68376,1.38293 2.68377,1.66304 2.68377,1.99244 2.01282,1.74818 2.01283,2.00258 2.01282,2.29815 2.01283,2.64448 2.01283,3.05416 2.01282,3.54409 2.01283,4.1377 2.01282,4.8687 1.34189,3.74197 1.34188,4.22257 1.34188,4.79828 1.34189,5.49947 1.34188,6.37013 1.34189,7.4741 1.34188,8.89969 1.34188,10.73779 1.34189,12.88483 1.34188,13.88618 0.67094,5.40819 0.67094,2.25652 0.67095,-1.87072 0.67094,-5.12999 2.68377,-26.30799 1.34188,-10.56293 1.34188,-8.71275 1.34189,-7.27751 1.34188,-6.16759 1.34188,-5.29391 1.34189,-4.59182 1.34188,-4.0167 2.01283,-5.15105 2.01282,-4.30808 2.01283,-3.63557 2.01283,-3.08899 2.01282,-2.63831 2.01283,-2.26243 2.01282,-1.94603 2.01283,-1.67763 2.01282,-1.44845 2.68377,-1.62984 2.68377,-1.34134 2.68377,-1.10184 3.3547,-1.09921 3.35471,-0.84504 3.35471,-0.63597 4.02565,-0.53222 3.35471,-0.25513 2.01283,0.0573 0.67094,0.0541 2.68377,-0.30451 3.35471,0.0278 2.68377,0.26112 1.34188,0.325 1.34188,0.58381 0.67095,0.32397 0.67094,0.16045 0.67094,-0.10281 2.01283,-0.68064 1.34188,-0.17072 2.01282,2.2e-4 3.35471,0.27069 4.02566,0.55189 3.3547,0.64346 2.68377,0.68848 2.01283,0.68309 2.01282,0.94608 1.34189,0.89581 2.68376,2.29922 1.34189,1.56729 0.67094,1.05026 2.68377,4.96463 0.67094,1.74238 0.67094,2.45353 0.67094,3.2766 0.67095,4.21443 1.34188,11.09724 0.67094,5.51167 0.67094,2.93272 0.67095,-1.39294 0.67094,-4.75335 1.34188,-11.03033 0.67094,-4.29431 0.67094,-3.32851 0.67095,-2.56246 0.67094,-2.02517 0.67094,-1.61864 0.67094,-1.26721 0.67094,-0.96965 0.67095,-0.73074 0.67094,-0.54287 1.34188,-0.67172 1.34189,-0.28395 1.34188,-0.0171 1.34188,0.18033 2.01283,0.55822 2.01282,0.85059 2.01283,1.12947 2.01283,1.43207 2.01282,1.79551 1.34188,1.45148 1.34189,1.71466 1.34188,2.05985 1.34189,2.53801 1.34188,3.24723 0.67094,2.01148 0.67094,2.37423 0.67095,2.85167 0.67094,3.47457 0.67094,4.23831 1.34188,10.08079 0.67094,3.47093 0.67095,0.0817 1.34188,-4.94663 0.67094,-1.32327 0.67094,0.0241 0.67095,1.14603 0.67094,2.03364 0.67094,2.76375 0.67094,3.40955 1.34189,8.6704 1.34188,11.24531 2.68377,25.59664 0.67094,1.86462 0.67094,-2.37257 0.67094,-5.4991 2.01283,-20.19523 1.34188,-11.14836 1.34189,-8.93335 1.34188,-7.18583 v 0"
       style="fill:none;stroke:#0000ff;stroke-width:1.5;stroke-linecap:square;stroke-linejoin:round;stroke-miterlimit:10;stroke-dasharray:none;stroke-opacity:1"
       transform="matrix(1.3333333,0,0,-1.3333333,0,603.91083)"
       clip-path="url(#clipPath103)" />
    <path
       id="path104"
       d="m 53.825,40.778088 0.670942,5.537369 1.341884,3.831408 1.341883,3.958252 1.341884,4.719711 1.341884,5.399527 1.341884,6.105215 1.341883,7.083736 1.341884,8.695009 1.341884,11.341291 2.012826,21.599844 0.670942,4.84279 0.670941,0.9525 0.670942,-2.31414 1.341884,-7.00139 0.670942,-2.69939 0.670942,-1.90898 0.670942,-1.21588 0.670942,-0.65536 0.670942,-0.21582 0.670941,0.12607 0.670942,0.39325 0.670942,0.60486 1.341884,1.69435 1.341884,2.19245 1.341883,2.61363 1.341884,3.04638 1.341884,3.5769 1.341884,4.32311 1.341884,5.50506 0.670941,3.47021 0.670942,4.30955 0.670942,5.93091 0.670942,8.67577 0.670942,12.16552 1.341884,28.77304 0.670942,11.78069 0.670941,8.0819 0.670942,4.66029 0.670942,2.24085 0.670942,1.61684 0.670942,0.62509 0.670942,-1.54028 0.670942,-5.82062 0.670942,-10.40879 2.012825,-40.2999 0.670942,-9.60656 0.670942,-6.15386 0.670942,-3.82838 0.67094,-2.54583 0.67094,-1.81883 0.67095,-1.31867 0.67094,-0.95129 0.67094,-0.67293 0.67094,-0.45773 0.67094,-0.28887 1.34189,-0.20214 1.34188,0.14985 1.34188,0.38424 2.01283,0.85987 2.68377,1.46105 3.35471,2.09633 4.02565,2.75338 2.68377,2.01808 2.01282,1.73934 1.34189,1.41226 1.34188,1.879 0.67094,1.28982 0.67094,1.72678 0.67094,2.47133 0.67095,3.74987 0.67094,5.70939 0.67094,6.98962 0.67094,2.31532 2.01283,-15.35024 0.67094,-2.14667 0.67094,-1.14373 0.67094,-0.57336 0.67094,-0.23965 0.67095,-0.0361 1.34188,0.27213 2.01283,0.82572 2.68376,1.42107 4.02566,2.43354 4.02565,2.72399 2.68376,2.04421 2.68377,2.34022 2.01283,2.05478 2.01282,2.44749 1.34189,1.94468 1.34188,2.29399 1.34188,2.76664 1.34189,3.41396 1.34188,4.31005 1.34189,5.55884 1.34188,7.2924 1.34188,9.60895 1.34189,12.16917 1.34188,12.23432 0.67094,3.26454 0.67094,-0.49144 0.67095,-3.88816 2.68376,-22.38833 1.34189,-8.07082 1.34188,-5.84906 1.34188,-4.20577 1.34189,-3.024 1.34188,-2.17514 1.34189,-1.5607 1.34188,-1.11096 1.34188,-0.7776 1.34189,-0.52731 1.34188,-0.337 2.01283,-0.24133 2.01282,-0.0124 2.68377,0.22624 3.35471,0.53837 4.02565,0.87592 6.03848,1.57634 8.0513,2.3504 10.73507,3.3636 9.39319,3.15289 6.03847,2.22853 4.02566,1.67679 3.3547,1.63352 2.01283,1.16688 2.01283,1.40977 1.34188,1.15361 1.34188,1.4214 1.34189,1.83421 1.34188,2.49851 0.67094,1.62796 0.67095,1.98724 0.67094,2.45881 0.67094,3.0604 1.34188,8.0861 2.01283,15.01953 0.67094,2.5967 0.67094,-1.28808 0.67094,-4.33848 1.34189,-10.2697 0.67094,-4.0883 0.67094,-3.20945 0.67094,-2.45801 0.67094,-1.85756 0.67095,-1.38996 0.67094,-1.02939 0.67094,-0.75489 0.67094,-0.54778 0.67094,-0.38439 1.34189,-0.38538 1.34188,-0.009 1.34189,0.26018 1.34188,0.46879 1.34188,0.64629 2.01283,1.27981 2.01283,1.67198 1.34188,1.36876 1.34188,1.61691 1.34189,1.9228 1.34188,2.31018 1.34188,2.81394 1.34189,3.4953 1.34188,4.44282 1.34188,5.32893 1.34189,6.93722 1.34188,9.13507 1.34189,11.84497 2.01282,20.027 0.67094,3.14733 0.67095,-1.23691 0.67094,-4.91395 2.01282,-19.61866 1.34189,-10.35143 1.34188,-7.70105 1.34188,-5.69802 1.34189,-4.25977 1.34188,-3.14042 1.34189,-2.3065 1.34188,-1.68058 1.34188,-1.2025 1.34189,-0.83069 1.34188,-0.53562 1.34188,-0.29584 1.34189,-0.0953 1.34188,0.0787 1.34189,0.23677 1.34188,0.39003 1.34188,0.55319 1.34189,0.75647 1.34188,1.0949 0.67094,0.80651 0.67094,1.16517 0.67095,1.60258 0.67094,0.99578 0.67094,-0.31569 0.67094,-0.12251 0.67094,0.39206 0.67095,0.73228 0.67094,0.97915 0.67094,1.20704 0.67094,1.45982 0.67094,1.77381 0.67095,2.19314 0.67094,2.77745 0.67094,3.57018 2.01282,12.56044 0.67095,0.91048 0.67094,0.40161 0.67094,2.14584 0.67094,3.71703 0.67094,4.65116 2.01283,18.69066 0.67094,2.56359 0.67094,-2.44028 0.67095,-5.96602 1.34188,-13.58603 0.67094,-5.68754 0.67094,-4.73405 0.67094,-3.87257 0.67095,-3.13693 0.67094,-2.52198 0.67094,-2.01085 0.67094,-1.58465 0.67094,-1.22551 0.67095,-0.91734 0.67094,-0.64529 0.67094,-0.39483 0.67094,-0.15008 0.67094,0.10878 0.67095,0.40973 0.67094,0.79482 0.67094,1.32105 0.67094,2.00966 1.34189,4.86495 0.67094,1.65355 1.34188,4.87046 0.67094,0.44168 0.67094,-2.60446 0.67095,-3.55954 0.67094,-2.8873 0.67094,-1.9308 0.67094,-1.16782 0.67094,-0.62622 0.67095,-0.23752 0.67094,0.0656 0.67094,0.33928 0.67094,0.63491 0.67094,0.98522 0.67095,1.22506 0.67094,0.8549 0.67094,0.14345 1.34188,-0.7187 0.67095,-0.12375 0.67094,0.10826 1.34188,0.66747 1.34188,1.00929 2.01283,1.90881 1.34188,1.61246 1.34189,1.78244 1.34188,1.12788 1.34188,1.47256 2.01283,2.6023 2.68377,3.91019 2.68377,4.41134 2.01282,3.68532 2.01283,4.06519 2.01282,4.51528 2.01283,5.06087 2.01282,5.74125 2.01283,6.62327 1.34188,5.06025 1.34189,5.75306 1.34188,6.70431 1.34188,8.03248 2.01283,13.13183 1.34188,8.391 2.01283,16.2194 1.34188,11.83937 0.67094,4.56316 0.67095,1.62245 0.67094,-2.07526 0.67094,-4.94606 3.35471,-30.63169 1.34188,-9.47948 1.34189,-7.98097 1.34188,-6.81946 1.34189,-5.91326 1.34188,-5.19322 2.01282,-6.7283 2.01283,-5.7315 2.01283,-4.95169 2.01282,-4.3224 2.01283,-3.80041 2.01282,-3.35571 2.01283,-2.96559 2.01282,-2.61014 2.01283,-2.26723 2.01283,-1.90413 1.34188,-1.03077 1.34188,-0.7793 1.34189,-0.41868 0.67094,-0.0122 0.67094,0.17538 0.67094,0.42992 0.67094,0.78317 0.67095,1.28088 0.67094,1.98174 0.67094,2.93494 0.67094,4.0821 1.34189,9.27685 0.67094,0.86417 0.67094,-3.42006 1.34188,-10.36776 0.67094,-4.06816 0.67095,-3.12152 0.67094,-2.38389 0.67094,-1.84503 0.67094,-1.4568 1.34189,-2.1431 1.34188,-1.50469 1.34188,-1.12249 1.34189,-0.87109 2.01282,-0.96531 1.34189,-0.4151 0.67094,-0.0971 0.67094,0.0364 0.67094,0.19231 0.67094,0.0387 2.01283,-1.19191 1.34188,-0.24754 1.34189,0.0977 0.67094,0.2034 1.34188,0.78567 0.67095,0.44519 0.67094,0.17708 0.67094,-0.26003 2.01282,-1.56482 1.34189,-0.57585 1.34188,-0.27675 2.01283,-0.12781 2.68377,0.11554 2.68376,0.32957 3.35471,0.66574 2.68377,0.73445 2.68377,0.9268 2.68377,1.13997 2.68376,1.38206 2.68377,1.66249 2.68377,1.99322 2.01282,1.75225 2.01283,2.0223 2.01282,2.41088 2.01283,2.53532 2.01283,3.02125 2.01282,3.53568 2.01283,4.13342 2.01282,4.86564 1.34189,3.74023 1.34188,4.221 1.34188,4.79684 1.34189,5.49816 1.34188,6.36897 1.34189,7.47308 1.34188,8.89881 1.34188,10.7371 1.34189,12.88431 1.34188,13.88586 0.67094,5.40812 0.67094,2.25649 0.67095,-1.87069 0.67094,-5.1299 2.68377,-26.30687 1.34188,-10.56179 1.34188,-8.71099 1.34189,-7.27462 1.34188,-6.16243 1.34188,-5.28304 1.34189,-4.56251 1.34188,-3.90676 3.35471,-8.1484 2.01283,-3.90921 2.01282,-3.27547 2.01283,-2.78482 2.01282,-2.38235 2.01283,-2.04604 2.01283,-1.76199 2.01282,-1.5202 2.68377,-1.70977 2.68377,-1.40689 2.68376,-1.15601 2.68377,-0.94629 3.35471,-0.93702 3.35471,-0.70745 3.35471,-0.49442 2.01282,-0.0978 1.34189,0.22789 2.68377,-0.60507 1.34188,0.0337 0.67094,0.0449 2.68377,-0.31915 2.68377,-0.003 2.68376,0.18613 1.34189,0.23364 1.34188,0.44589 1.34189,0.64822 0.67094,0.16007 0.67094,-0.10272 2.01283,-0.67963 1.34188,-0.17049 2.01282,1.8e-4 3.35471,0.27025 4.02566,0.55108 3.3547,0.64255 2.68377,0.6875 2.01283,0.68213 2.01282,0.94473 1.34189,0.89455 2.68376,2.29614 1.34189,1.56533 0.67094,1.049 2.68377,4.95936 0.67094,1.74077 0.67094,2.45144 0.67094,3.27411 0.67095,4.2117 1.34188,11.09201 0.67094,5.50987 0.67094,2.93191 0.67095,-1.39256 0.67094,-4.75189 1.34188,-11.02552 0.67094,-4.29173 0.67094,-3.32614 0.67095,-2.56038 0.67094,-2.02335 0.67094,-1.61705 0.67094,-1.26588 0.67094,-0.96858 0.67095,-0.72988 0.67094,-0.54222 1.34188,-0.67084 1.34189,-0.28353 1.34188,-0.017 1.34188,0.18019 2.01283,0.55768 2.01282,0.8497 2.01283,1.12831 2.01283,1.43063 2.01282,1.79381 1.34188,1.45018 1.34189,1.71321 1.34188,2.05822 1.34189,2.53618 1.34188,3.24514 0.67094,2.01032 0.67094,2.37298 0.67095,2.85032 0.67094,3.47313 0.67094,4.23681 1.34188,10.07815 0.67094,3.47026 0.67095,0.0816 1.34188,-4.94562 0.67094,-1.32295 0.67094,0.0241 0.67095,1.14577 0.67094,2.0332 0.67094,2.76321 0.67094,3.40896 1.34189,8.66926 1.34188,11.24432 2.68377,25.59558 0.67094,1.86459 0.67094,-2.37252 0.67094,-5.49896 2.01283,-20.19426 1.34188,-11.14734 1.34189,-8.93207 1.34188,-7.18439 v 0"
       style="fill:none;stroke:#000000;stroke-width:1.5;stroke-linecap:square;stroke-linejoin:round;stroke-miterlimit:10;stroke-dasharray:none;stroke-opacity:1"
       transform="matrix(1.3333333,0,0,-1.3333333,0,603.91083)"
       clip-path="url(#clipPath105)" />
    <path
       id="path106"
       d="M 53.825,39.496875 V 427.57687"
       style="fill:none;stroke:#000000;stroke-width:0.8;stroke-linecap:square;stroke-linejoin:miter;stroke-miterlimit:10;stroke-dasharray:none;stroke-opacity:1"
       transform="matrix(1.3333333,0,0,-1.3333333,0,603.91083)" />
    <path
       id="path107"
       d="M 723.425,39.496875 V 427.57687"
       style="fill:none;stroke:#000000;stroke-width:0.8;stroke-linecap:square;stroke-linejoin:miter;stroke-miterlimit:10;stroke-dasharray:none;stroke-opacity:1"
       transform="matrix(1.3333333,0,0,-1.3333333,0,603.91083)" />
    <path
       id="path108"
       d="m 53.825,39.496875 h 669.6"
       style="fill:none;stroke:#000000;stroke-width:0.8;stroke-linecap:square;stroke-linejoin:miter;stroke-miterlimit:10;stroke-dasharray:none;stroke-opacity:1"
       transform="matrix(1.3333333,0,0,-1.3333333,0,603.91083)" />
    <path
       id="path109"
       d="m 53.825,427.57687 h 669.6"
       style="fill:none;stroke:#000000;stroke-width:0.8;stroke-linecap:square;stroke-linejoin:miter;stroke-miterlimit:10;stroke-dasharray:none;stroke-opacity:1"
       transform="matrix(1.3333333,0,0,-1.3333333,0,603.91083)" />
    <text
       id="text109"
       xml:space="preserve"
       transform="matrix(1.3333333,0,0,1.3333333,71.78125,25.808333)"><tspan
         style="font-variant:normal;font-weight:normal;font-size:16px;font-family:'DejaVu Sans';writing-mode:lr-tb;fill:#000000;fill-opacity:1;fill-rule:nonzero;stroke:none"
         x="0 10.16 20.32 30.16 38.959999 43.408001 49.040001 53.487999 62.287998 67.375999 77.183998 83.456001 89.727997 99.568001 109.712 119.856 129.664 135.936 140.384 150.17599 160.32001 165.408 171.03999 180.832 187.408 192.496 200.832 207.104 216.912 227.056 237.216 247.024 253.31876 263.47876 268.56674 277.36676 287.15875 297.30276 307.46274 311.91074 318.18274 322.63074 332.42276 342.56674 350.90274 355.99075 361.07874 370.88675 379.68674 388.48676 398.27875 404.57349 414.73349 419.18149 429.3255 439.4855 444.57349 450.84549 460.63751 465.72549 470.4455 480.2215 491.9335 497.7095 508.8295 513.91748 521.08112 526.16913 536.34515 546.52112 556.69714 561.7851 568.02515 578.20111 588.37714 594.61713 599.70514 604.79315 614.60114 624.74512 634.8891 644.44788 653.91986 659.00787"
         y="0"
         sodipodi:role="line"
         id="tspan109">Specific attenuation for standard conditions, according to ITU-R P.676 (10), annex 1</tspan></text>
    <path
       id="path110"
       d="m 60.825,375.56125 h 67.54687 c 1.33334,0 2,0.66667 2,2 v 43.01562 c 0,1.33334 -0.66666,2 -2,2 H 60.825 c -1.333333,0 -2,-0.66666 -2,-2 v -43.01562 c 0,-1.33333 0.666667,-2 2,-2 z"
       style="fill:#ffffff;fill-opacity:0.8;fill-rule:nonzero;stroke:#cccccc;stroke-width:1;stroke-linecap:butt;stroke-linejoin:miter;stroke-miterlimit:10;stroke-dasharray:none;stroke-opacity:0.8"
       transform="matrix(1.3333333,0,0,-1.3333333,0,603.91083)" />
    <path
       id="path111"
       d="m 62.825,414.48312 h 10 10"
       style="fill:none;stroke:#ff0000;stroke-width:1.5;stroke-linecap:square;stroke-linejoin:round;stroke-miterlimit:10;stroke-dasharray:none;stroke-opacity:1"
       transform="matrix(1.3333333,0,0,-1.3333333,0,603.91083)" />
    <text
       id="text111"
       xml:space="preserve"
       transform="matrix(1.3333333,0,0,1.3333333,121.1,55.933333)"><tspan
         style="font-variant:normal;font-weight:normal;font-size:10px;font-family:'DejaVu Sans';writing-mode:lr-tb;fill:#000000;fill-opacity:1;fill-rule:nonzero;stroke:none"
         x="0 7.6999998 11.81 17.73 20.91 27.040001 29.82"
         y="0"
         sodipodi:role="line"
         id="tspan111">Dry air</tspan></text>
    <path
       id="path112"
       d="m 62.825,399.81125 h 10 10"
       style="fill:none;stroke:#0000ff;stroke-width:1.5;stroke-linecap:square;stroke-linejoin:round;stroke-miterlimit:10;stroke-dasharray:none;stroke-opacity:1"
       transform="matrix(1.3333333,0,0,-1.3333333,0,603.91083)" />
    <text
       id="text112"
       xml:space="preserve"
       transform="matrix(1.3333333,0,0,1.3333333,121.1,75.495833)"><tspan
         style="font-variant:normal;font-weight:normal;font-size:10px;font-family:'DejaVu Sans';writing-mode:lr-tb;fill:#000000;fill-opacity:1;fill-rule:nonzero;stroke:none"
         x="0 9.3118753 15.461875 19.381874 22.561874 28.691875 31.471874"
         y="0"
         sodipodi:role="line"
         id="tspan112">Wet air</tspan></text>
    <path
       id="path113"
       d="m 62.825,385.13937 h 10 10"
       style="fill:none;stroke:#000000;stroke-width:1.5;stroke-linecap:square;stroke-linejoin:round;stroke-miterlimit:10;stroke-dasharray:none;stroke-opacity:1"
       transform="matrix(1.3333333,0,0,-1.3333333,0,603.91083)" />
    <text
       id="text113"
       xml:space="preserve"
       transform="matrix(1.3333333,0,0,1.3333333,121.1,95.058333)"><tspan
         style="font-variant:normal;font-weight:normal;font-size:10px;font-family:'DejaVu Sans';writing-mode:lr-tb;fill:#000000;fill-opacity:1;fill-rule:nonzero;stroke:none"
         x="0 4.4225001 10.5425 14.4625 20.592501"
         y="0"
         sodipodi:role="line"
         id="tspan113">Total</tspan></text>
  </g>
</svg>
