<?xml version="1.0" encoding="UTF-8" standalone="no"?>
<!-- Created with Inkscape (http://www.inkscape.org/) -->

<svg
   width="100"
   height="100"
   viewBox="0 0 26.458334 26.458334"
   version="1.1"
   id="svg239"
   xml:space="preserve"
   inkscape:version="1.2.2 (b0a8486, 2022-12-01)"
   sodipodi:docname="elara-logo.svg"
   xmlns:inkscape="http://www.inkscape.org/namespaces/inkscape"
   xmlns:sodipodi="http://sodipodi.sourceforge.net/DTD/sodipodi-0.dtd"
   xmlns:xlink="http://www.w3.org/1999/xlink"
   xmlns="http://www.w3.org/2000/svg"
   xmlns:svg="http://www.w3.org/2000/svg"><sodipodi:namedview
     id="namedview241"
     pagecolor="#ffffff"
     bordercolor="#000000"
     borderopacity="0.25"
     inkscape:showpageshadow="2"
     inkscape:pageopacity="0.0"
     inkscape:pagecheckerboard="0"
     inkscape:deskcolor="#d1d1d1"
     inkscape:document-units="mm"
     showgrid="false"
     inkscape:zoom="0.73014343"
     inkscape:cx="117.10028"
     inkscape:cy="135.5898"
     inkscape:window-width="1280"
     inkscape:window-height="456"
     inkscape:window-x="181"
     inkscape:window-y="48"
     inkscape:window-maximized="0"
     inkscape:current-layer="layer1" /><defs
     id="defs236"><linearGradient
       inkscape:collect="always"
       id="linearGradient1061"><stop
         style="stop-color:#00ff86;stop-opacity:0.86274511;"
         offset="0"
         id="stop1057" /><stop
         style="stop-color:#008f9c;stop-opacity:1;"
         offset="1"
         id="stop1059" /></linearGradient><linearGradient
       inkscape:collect="always"
       xlink:href="#linearGradient1061"
       id="linearGradient1063"
       x1="30.877655"
       y1="13.437126"
       x2="50.346558"
       y2="13.437126"
       gradientUnits="userSpaceOnUse"
       gradientTransform="translate(-27.38294,-0.20795904)" /></defs><g
     inkscape:label="Layer 1"
     inkscape:groupmode="layer"
     id="layer1"><g
       id="g3450"
       transform="matrix(1.3590049,0,0,1.3590049,-4.7493356,-4.7493356)"><circle
         style="fill:url(#linearGradient1063);fill-opacity:1;stroke-width:0.881081;stroke-dasharray:0.881081, 2.64324"
         id="path478"
         cx="13.229167"
         cy="13.229167"
         r="9.7344513" /><path
         id="circle3204"
         style="color:#000000;fill:#ffffff;-inkscape-stroke:none"
         d="m 13.228535,5.093307 c -4.4911716,0 -8.1349036,3.6458006 -8.1349036,8.136971 0,2.642572 1.261491,4.991509 3.21479,6.477641 l 0.073898,-0.275952 c -1.84057,-1.439949 -3.023072,-3.681935 -3.023072,-6.201689 0,-4.3481794 3.521107,-7.8713541 7.8692876,-7.8713541 0.352748,0 0.699804,0.023279 1.040246,0.068213 l 0.06925,-0.2578654 C 13.975179,5.1197026 13.604941,5.093307 13.228535,5.093307 Z m 3.63492,0.857312 -0.06976,0.2599325 c 2.555592,1.3002673 4.30568,3.9550105 4.30568,7.0197265 0,4.348181 -3.522658,7.868771 -7.870837,7.868771 -0.856887,0 -1.68158,-0.13678 -2.453597,-0.38964 l -0.06873,0.256831 c 0.794064,0.258869 1.642095,0.398426 2.522327,0.398426 4.49117,0 8.134387,-3.643216 8.134387,-8.134388 0,-3.184724 -1.832292,-5.94363 -4.499467,-7.279659 z" /><g
         id="g3367"
         transform="translate(-0.00129864,-0.00490774)"><g
           id="g3352"><circle
             style="fill:#ffffff;stroke:none;stroke-width:0.318754;stroke-dasharray:none;stroke-dashoffset:0"
             id="path3262"
             cx="11.296662"
             cy="10.795639"
             r="0.46853116" /><rect
             style="fill:#ffffff;stroke:none;stroke-width:0.331325;stroke-dasharray:none;stroke-dashoffset:0"
             id="rect3316"
             width="3.1349137"
             height="0.93699998"
             x="12.497886"
             y="10.311783"
             ry="0.29876292" /></g><rect
           style="fill:#ffffff;stroke:none;stroke-width:0.331325;stroke-dasharray:none;stroke-dashoffset:0"
           id="rect3348"
           width="3.1349137"
           height="0.93699998"
           x="10.855771"
           y="12.765574"
           ry="0.29876292" /><g
           id="g3358"
           transform="translate(0,4.8921966)"><circle
             style="fill:#ffffff;stroke:none;stroke-width:0.318754;stroke-dasharray:none;stroke-dashoffset:0"
             id="circle3354"
             cx="11.296662"
             cy="10.795639"
             r="0.46853116" /><rect
             style="fill:#ffffff;stroke:none;stroke-width:0.331325;stroke-dasharray:none;stroke-dashoffset:0"
             id="rect3356"
             width="3.1349137"
             height="0.93699998"
             x="12.497886"
             y="10.311783"
             ry="0.29876292" /></g></g></g></g></svg>
